<?xml version="1.0" encoding="utf-8"?>
<!-- Generator: Adobe Illustrator 24.1.2, SVG Export Plug-In . SVG Version: 6.00 Build 0)  -->
<svg version="1.1" id="b" xmlns="http://www.w3.org/2000/svg" xmlns:xlink="http://www.w3.org/1999/xlink" x="0px" y="0px"
	 viewBox="0 0 2084.71 1767.04" style="enable-background:new 0 0 2084.71 1767.04;" xml:space="preserve">
<style type="text/css">
	.st0{fill:none;stroke:#7FEF97;stroke-width:4;stroke-miterlimit:10;}
	.st1{fill:none;stroke:#7FEF97;stroke-width:4;stroke-miterlimit:10.0001;}
	.st2{fill:none;stroke:#7FEF97;stroke-width:4;stroke-miterlimit:10;stroke-opacity:0;}
</style>
<path class="st0" d="M256.21,1298.56c11.68,3.68,20.5,11.27,26.49,22.78s7.15,23.1,3.47,34.77c-3.68,11.67-11.27,20.5-22.78,26.49
	c-11.51,5.99-23.09,7.15-34.77,3.47c-11.67-3.68-20.5-11.27-26.49-22.78s-7.15-23.1-3.47-34.77c3.68-11.68,11.27-20.5,22.78-26.49
	S244.54,1294.88,256.21,1298.56z"/>
<path class="st0" d="M1683.05,1675.42c11.68,3.68,20.5,11.27,26.49,22.78s7.15,23.1,3.47,34.77s-11.27,20.5-22.78,26.49
	s-23.09,7.15-34.77,3.47c-11.67-3.68-20.5-11.27-26.49-22.78s-7.15-23.1-3.47-34.77c3.68-11.68,11.27-20.5,22.78-26.49
	S1671.38,1671.74,1683.05,1675.42z"/>
<path class="st0" d="M716.39,183.17c11.68,3.68,20.5,11.27,26.49,22.78s7.15,23.1,3.47,34.77c-3.68,11.67-11.27,20.5-22.78,26.49
	s-23.1,7.15-34.77,3.47c-11.67-3.68-20.5-11.27-26.49-22.78c-5.99-11.51-7.15-23.1-3.47-34.77c3.68-11.68,11.27-20.5,22.78-26.49
	S704.72,179.49,716.39,183.17L716.39,183.17z"/>
<rect x="1397.16" y="112.7" transform="matrix(0.9866 -0.1632 0.1632 0.9866 -5.7748 236.7325)" class="st1" width="81.62" height="81.62"/>
<polygon class="st0" points="200.07,752.44 271.9,787.87 239.86,852.85 341.5,901.9 291.57,1003.04 393.19,1052.05 325.36,1189.45 
	253.53,1154 285.58,1089.09 183.95,1040.07 233.89,938.91 132.28,889.88 "/>
<polygon class="st0" points="1988.67,444.44 2046.38,499.99 1996.14,552.18 2078.13,629.74 1999.88,710.99 2081.87,788.51 
	1975.56,898.87 1917.87,843.3 1968.08,791.17 1886.1,713.65 1964.37,632.38 1882.4,554.84 "/>
<path class="st0" d="M1808.66,817.34c-0.1,1.55-0.29,3.11-0.57,4.67c-28.97,159.44-182.26,265.59-341.71,236.62
	c-21.77-3.95-36.17-24.79-32.25-46.57c3.95-21.76,24.8-36.2,46.57-32.25c115.99,21.08,227.49-56.13,248.57-172.11
	c3.95-21.76,24.8-36.2,46.57-32.25c20.2,3.67,34.09,21.9,32.82,41.9L1808.66,817.34z"/>
<path id="d" class="st2" d="M61.65,327.05c11.68,3.68,20.5,11.27,26.49,22.78s7.15,23.1,3.47,34.77
	c-3.68,11.67-11.27,20.5-22.78,26.49s-23.09,7.15-34.77,3.47c-11.67-3.68-20.5-11.27-26.49-22.78s-7.15-23.1-3.47-34.77
	c3.68-11.68,11.27-20.5,22.78-26.49S49.98,323.37,61.65,327.05z"/>
<polyline class="st0" points="267.18,1.49 355.85,81.19 307.1,134.69 366.31,188.64 469.5,75.37 387.23,1.72 "/>
<circle class="st1" cx="1731.1" cy="232.45" r="164.48"/>
<circle class="st1" cx="1731.1" cy="232.45" r="89.3"/>
</svg>
