<?xml version="1.0" encoding="UTF-8"?><svg xmlns="http://www.w3.org/2000/svg" xmlns:xlink="http://www.w3.org/1999/xlink" viewBox="0 0 1924.49 641.77"><defs><style>.q,.r{fill:none;}.s{fill:#eba3b2;}.t{fill:#f1f2dd;}.u{fill:#ff226c;}.r{stroke:#fff;stroke-width:14.6px;}.r,.v{stroke-miterlimit:10;}.v{fill:#66c7d8;stroke:#66c7d8;stroke-width:.87px;}.w{clip-path:url(#f);}.x{clip-path:url(#e);}.y{clip-path:url(#d);}.a`{clip-path:url(#n);}.aa{clip-path:url(#m);}.ab{clip-path:url(#l);}.ac{clip-path:url(#k);}.ad{clip-path:url(#j);}.ae{clip-path:url(#i);}.af{clip-path:url(#h);}.ag{clip-path:url(#g);}.ah{clip-path:url(#p);}.ai{clip-path:url(#o);}</style><clipPath id="d"><rect class="q" x="0" y="0" width="962.62" height="641.77" transform="translate(962.62 641.77) rotate(-180)"/></clipPath><clipPath id="e"><circle class="q" cx="240.53" cy="401.17" r="80.16"/></clipPath><clipPath id="f"><circle class="q" cx="882.89" cy="80.76" r="80.16"/></clipPath><clipPath id="g"><rect class="q" x="160.52" y=".19" width="160.45" height="160.45" transform="translate(160.32 321.15) rotate(-90)"/></clipPath><clipPath id="h"><rect class="q" x="641.75" y="160.63" width="160.45" height="160.45" transform="translate(481.11 962.83) rotate(-90)"/></clipPath><clipPath id="i"><rect class="q" x="481.13" y="321.08" width="160.84" height="160.45"/></clipPath><clipPath id="j"><rect class="q" x="-.32" y="160.63" width="160.84" height="160.45"/></clipPath><clipPath id="k"><rect class="q" x="961.87" y="0" width="962.62" height="641.77"/></clipPath><clipPath id="l"><circle class="q" cx="1683.97" cy="240.61" r="80.16"/></clipPath><clipPath id="m"><circle class="q" cx="1041.61" cy="561.01" r="80.16"/></clipPath><clipPath id="n"><rect class="q" x="1603.53" y="481.14" width="160.45" height="160.45" transform="translate(2245.11 -1122.39) rotate(90)"/></clipPath><clipPath id="o"><rect class="q" x="1122.3" y="320.69" width="160.45" height="160.45" transform="translate(1603.44 -801.6) rotate(90)"/></clipPath><clipPath id="p"><rect class="q" x="1282.52" y="160.25" width="160.84" height="160.45" transform="translate(2725.89 480.94) rotate(-180)"/></clipPath></defs><g id="a"/><g id="b"><g id="c"><g><g class="y"><g><rect class="v" x="160.44" y="321.08" width="160.44" height="160.44" transform="translate(-160.64 641.97) rotate(-90)"/><g><rect class="t" x="160.44" y="481.52" width="160.45" height="160.45" transform="translate(-321.08 802.42) rotate(-90)"/><g><rect class="u" x="160.44" y="615.24" width="26.74" height="26.74" transform="translate(-454.79 802.42) rotate(-90)"/><rect class="u" x="187.19" y="588.49" width="26.74" height="26.74" transform="translate(-401.31 802.42) rotate(-90)"/><rect class="u" x="213.93" y="615.24" width="26.74" height="26.74" transform="translate(-401.31 855.91) rotate(-90)"/><rect class="u" x="160.44" y="561.75" width="26.74" height="26.74" transform="translate(-401.31 748.94) rotate(-90)"/><rect class="u" x="187.19" y="535.01" width="26.74" height="26.74" transform="translate(-347.82 748.94) rotate(-90)"/><rect class="u" x="213.93" y="561.75" width="26.74" height="26.74" transform="translate(-347.82 802.42) rotate(-90)"/><rect class="u" x="267.41" y="615.24" width="26.74" height="26.74" transform="translate(-347.82 909.39) rotate(-90)"/><rect class="u" x="240.67" y="588.49" width="26.74" height="26.74" transform="translate(-347.82 855.91) rotate(-90)"/><rect class="u" x="294.15" y="588.49" width="26.74" height="26.74" transform="translate(-294.34 909.39) rotate(-90)"/><rect class="u" x="267.41" y="561.75" width="26.74" height="26.74" transform="translate(-294.34 855.91) rotate(-90)"/><rect class="u" x="240.67" y="535.01" width="26.74" height="26.74" transform="translate(-294.34 802.42) rotate(-90)"/><rect class="u" x="294.15" y="535.01" width="26.74" height="26.74" transform="translate(-240.85 855.91) rotate(-90)"/><rect class="u" x="267.41" y="508.27" width="26.74" height="26.74" transform="translate(-240.85 802.42) rotate(-90)"/><rect class="u" x="240.67" y="481.52" width="26.74" height="26.74" transform="translate(-240.85 748.94) rotate(-90)"/><rect class="u" x="294.15" y="481.52" width="26.74" height="26.74" transform="translate(-187.37 802.42) rotate(-90)"/><rect class="u" x="160.44" y="508.27" width="26.74" height="26.74" transform="translate(-347.82 695.45) rotate(-90)"/><rect class="u" x="187.19" y="481.52" width="26.74" height="26.74" transform="translate(-294.34 695.45) rotate(-90)"/><rect class="u" x="213.93" y="508.27" width="26.74" height="26.74" transform="translate(-294.34 748.94) rotate(-90)"/></g></g><g><rect class="v" x="133.72" y="481.33" width="26.72" height="160.32"/><rect class="u" x="107" y="481.33" width="26.72" height="160.32"/><rect class="v" x="80.28" y="481.33" width="26.72" height="160.32"/><g><rect class="u" x=".12" y="481.33" width="26.72" height="160.32"/><rect class="v" x="26.84" y="481.33" width="26.72" height="160.32"/><rect class="u" x="53.56" y="481.33" width="26.72" height="160.32"/></g></g><g><rect class="v" x="775.98" y=".21" width="26.74" height="160.43"/><rect class="u" x="749.24" y=".21" width="26.74" height="160.43"/><rect class="v" x="722.51" y=".21" width="26.74" height="160.43"/><g><rect class="u" x="642.29" y=".21" width="26.74" height="160.43"/><rect class="v" x="669.02" y=".21" width="26.74" height="160.43"/><rect class="u" x="695.76" y=".21" width="26.74" height="160.43"/></g></g><g><circle class="u" cx="240.53" cy="401.17" r="80.16"/><g class="x"><g><path class="t" d="M223.34,539.27c-8.67-8.67-7.5-18.78-6.65-26.16,.8-6.88,1.05-10.64-2.47-14.16-3.52-3.52-7.28-3.27-14.16-2.47-7.38,.86-17.48,2.02-26.16-6.65-8.67-8.67-7.5-18.78-6.65-26.16,.8-6.88,1.05-10.64-2.47-14.15-3.52-3.52-7.27-3.27-14.15-2.47-7.38,.86-17.48,2.03-26.16-6.65-8.67-8.67-7.5-18.78-6.65-26.16,.8-6.88,1.05-10.64-2.47-14.15l10.32-10.32c8.67,8.67,7.5,18.78,6.65,26.16-.8,6.88-1.05,10.63,2.47,14.15,3.52,3.52,7.27,3.27,14.15,2.47,7.38-.86,17.48-2.03,26.16,6.65,8.67,8.67,7.5,18.78,6.65,26.16-.8,6.88-1.05,10.64,2.47,14.15,3.52,3.52,7.27,3.27,14.16,2.47,7.38-.85,17.48-2.02,26.16,6.65,8.67,8.67,7.5,18.78,6.65,26.16-.8,6.88-1.05,10.64,2.47,14.16l-10.32,10.32Z"/><path class="t" d="M248.67,513.93c-8.67-8.67-7.5-18.78-6.65-26.16,.8-6.88,1.05-10.64-2.47-14.16-3.52-3.52-7.27-3.27-14.16-2.47-7.38,.86-17.48,2.03-26.16-6.65-8.67-8.67-7.5-18.78-6.65-26.16,.8-6.88,1.05-10.64-2.47-14.15-3.52-3.52-7.27-3.27-14.15-2.47-7.38,.86-17.48,2.03-26.16-6.65-8.67-8.67-7.5-18.78-6.65-26.16,.8-6.88,1.05-10.64-2.47-14.16l10.32-10.32c8.67,8.67,7.5,18.78,6.65,26.16-.8,6.88-1.05,10.64,2.47,14.15,3.52,3.52,7.27,3.27,14.15,2.47,7.38-.86,17.48-2.03,26.16,6.65,8.67,8.67,7.5,18.78,6.65,26.16-.8,6.88-1.05,10.64,2.47,14.15,3.52,3.52,7.27,3.27,14.16,2.47,7.38-.85,17.48-2.03,26.16,6.65,8.67,8.67,7.5,18.78,6.65,26.16-.8,6.88-1.05,10.64,2.47,14.16l-10.32,10.32Z"/><path class="t" d="M274.01,488.59c-8.67-8.67-7.5-18.78-6.65-26.16,.8-6.88,1.05-10.64-2.47-14.16-3.52-3.52-7.28-3.27-14.16-2.47-7.38,.85-17.48,2.03-26.16-6.65-8.67-8.67-7.5-18.78-6.65-26.16,.8-6.88,1.05-10.64-2.47-14.15-3.52-3.52-7.27-3.27-14.15-2.47-7.38,.86-17.48,2.03-26.16-6.65-8.67-8.67-7.5-18.78-6.65-26.16,.8-6.88,1.05-10.64-2.47-14.15l10.32-10.32c8.67,8.67,7.5,18.78,6.65,26.16-.8,6.88-1.05,10.64,2.47,14.15,3.52,3.52,7.27,3.27,14.15,2.47,7.38-.86,17.48-2.03,26.16,6.65,8.67,8.67,7.5,18.78,6.65,26.16-.8,6.88-1.05,10.64,2.47,14.15,3.52,3.52,7.28,3.27,14.16,2.47,7.38-.85,17.48-2.03,26.16,6.65,8.67,8.67,7.5,18.78,6.65,26.16-.8,6.88-1.05,10.64,2.47,14.16l-10.32,10.32Z"/><path class="t" d="M299.35,463.25c-8.67-8.68-7.5-18.78-6.65-26.16,.8-6.88,1.05-10.64-2.47-14.16-3.52-3.52-7.27-3.27-14.16-2.47-7.38,.85-17.48,2.03-26.16-6.65-8.67-8.67-7.5-18.78-6.65-26.16,.8-6.88,1.05-10.64-2.47-14.15-3.52-3.52-7.27-3.27-14.15-2.47-7.38,.86-17.48,2.03-26.16-6.65-8.67-8.67-7.5-18.78-6.65-26.16,.8-6.88,1.05-10.64-2.47-14.15l10.32-10.32c8.67,8.67,7.5,18.78,6.65,26.16-.8,6.88-1.05,10.64,2.47,14.15,3.52,3.52,7.27,3.27,14.15,2.47,7.38-.86,17.48-2.03,26.16,6.65,8.67,8.67,7.5,18.78,6.65,26.16-.8,6.88-1.05,10.64,2.47,14.15,3.52,3.52,7.28,3.27,14.16,2.47,7.38-.85,17.48-2.03,26.16,6.65,8.67,8.68,7.5,18.78,6.65,26.16-.8,6.88-1.05,10.64,2.47,14.16l-10.32,10.32Z"/><path class="t" d="M324.69,437.91c-8.67-8.68-7.5-18.78-6.65-26.16,.8-6.88,1.05-10.64-2.47-14.16-3.52-3.52-7.27-3.27-14.16-2.47-7.38,.85-17.48,2.03-26.16-6.65-8.67-8.67-7.5-18.78-6.65-26.16,.8-6.88,1.05-10.64-2.47-14.15-3.52-3.52-7.28-3.27-14.15-2.47-7.38,.86-17.48,2.03-26.16-6.65-8.67-8.67-7.5-18.78-6.65-26.16,.8-6.88,1.05-10.64-2.47-14.15l10.32-10.32c8.67,8.67,7.5,18.78,6.65,26.16-.8,6.88-1.05,10.64,2.47,14.15,3.52,3.52,7.27,3.27,14.15,2.47,7.38-.86,17.48-2.03,26.16,6.65,8.67,8.67,7.5,18.78,6.65,26.16-.8,6.88-1.05,10.64,2.47,14.15,3.52,3.52,7.28,3.27,14.16,2.47,7.38-.85,17.48-2.03,26.16,6.65,8.67,8.68,7.5,18.78,6.65,26.16-.8,6.88-1.05,10.64,2.47,14.16l-10.32,10.32Z"/><path class="t" d="M350.03,412.57c-8.67-8.68-7.5-18.78-6.65-26.16,.8-6.88,1.05-10.64-2.47-14.16-3.52-3.52-7.27-3.27-14.16-2.47-7.38,.85-17.48,2.03-26.16-6.65-8.67-8.67-7.5-18.78-6.65-26.16,.8-6.88,1.05-10.64-2.47-14.15-3.52-3.52-7.27-3.27-14.15-2.47-7.38,.86-17.48,2.03-26.16-6.65-8.67-8.67-7.5-18.78-6.65-26.16,.8-6.88,1.05-10.64-2.47-14.15l10.32-10.32c8.67,8.67,7.5,18.78,6.65,26.16-.8,6.88-1.05,10.64,2.47,14.15,3.52,3.52,7.27,3.26,14.15,2.47,7.38-.86,17.48-2.03,26.16,6.65,8.67,8.67,7.5,18.78,6.65,26.16-.8,6.88-1.05,10.64,2.47,14.15,3.52,3.52,7.28,3.27,14.16,2.47,7.38-.85,17.48-2.03,26.16,6.65,8.67,8.68,7.5,18.78,6.65,26.16-.8,6.88-1.05,10.64,2.47,14.16l-10.32,10.32Z"/></g></g></g><rect class="u" x="802.28" y=".37" width="160.26" height="160.26" transform="translate(801.9 962.92) rotate(-90)"/><g><rect class="v" x="802.14" y="160.69" width="160.44" height="160.34" transform="translate(641.5 1123.22) rotate(-90)"/><g><rect class="v" x="802.19" y="294.35" width="26.74" height="26.72" transform="translate(507.85 1123.27) rotate(-90)"/><rect class="v" x="828.91" y="267.61" width="26.74" height="26.72" transform="translate(561.31 1123.25) rotate(-90)"/><rect class="v" x="855.63" y="294.35" width="26.74" height="26.72" transform="translate(561.29 1176.71) rotate(-90)"/><rect class="v" x="802.19" y="240.87" width="26.74" height="26.72" transform="translate(561.33 1069.78) rotate(-90)"/><rect class="v" x="828.91" y="214.13" width="26.74" height="26.72" transform="translate(614.79 1069.77) rotate(-90)"/><rect class="v" x="855.63" y="240.87" width="26.74" height="26.72" transform="translate(614.77 1123.23) rotate(-90)"/><rect class="v" x="909.08" y="294.35" width="26.74" height="26.72" transform="translate(614.74 1230.16) rotate(-90)"/><rect class="v" x="882.35" y="267.61" width="26.74" height="26.72" transform="translate(614.76 1176.69) rotate(-90)"/><rect class="v" x="935.8" y="267.61" width="26.74" height="26.72" transform="translate(668.2 1230.14) rotate(-90)"/><rect class="v" x="909.08" y="240.87" width="26.74" height="26.72" transform="translate(668.22 1176.68) rotate(-90)"/><rect class="v" x="882.35" y="214.13" width="26.74" height="26.72" transform="translate(668.24 1123.21) rotate(-90)"/><rect class="v" x="935.8" y="214.13" width="26.74" height="26.72" transform="translate(721.68 1176.66) rotate(-90)"/><rect class="v" x="909.08" y="187.39" width="26.74" height="26.72" transform="translate(721.7 1123.19) rotate(-90)"/><rect class="v" x="882.35" y="160.65" width="26.74" height="26.72" transform="translate(721.72 1069.73) rotate(-90)"/><rect class="v" x="935.8" y="160.65" width="26.74" height="26.72" transform="translate(775.16 1123.18) rotate(-90)"/><rect class="v" x="802.19" y="187.39" width="26.74" height="26.72" transform="translate(614.81 1016.3) rotate(-90)"/><rect class="v" x="828.91" y="160.65" width="26.74" height="26.72" transform="translate(668.27 1016.28) rotate(-90)"/><rect class="v" x="855.63" y="187.39" width="26.74" height="26.72" transform="translate(668.25 1069.75) rotate(-90)"/></g></g><g><circle class="v" cx="882.89" cy="80.76" r="80.16"/><g class="w"><g><path class="t" d="M865.7,218.86c-8.68-8.67-7.5-18.78-6.65-26.16,.8-6.88,1.05-10.64-2.47-14.16-3.52-3.52-7.28-3.27-14.16-2.47-7.38,.86-17.48,2.03-26.16-6.65-8.67-8.67-7.5-18.78-6.65-26.16,.8-6.88,1.05-10.64-2.47-14.15-3.52-3.52-7.27-3.27-14.15-2.47-7.38,.86-17.48,2.03-26.16-6.65s-7.5-18.78-6.65-26.16c.8-6.88,1.05-10.64-2.47-14.15l10.32-10.32c8.67,8.67,7.5,18.78,6.65,26.16-.8,6.88-1.05,10.63,2.47,14.15,3.52,3.52,7.28,3.27,14.15,2.47,7.38-.86,17.48-2.03,26.16,6.65,8.67,8.67,7.5,18.78,6.65,26.16-.8,6.88-1.05,10.64,2.47,14.16,3.52,3.52,7.27,3.27,14.16,2.47,7.38-.85,17.49-2.03,26.16,6.65s7.5,18.78,6.65,26.16c-.8,6.88-1.05,10.64,2.47,14.16l-10.32,10.32Z"/><path class="t" d="M891.03,193.52c-8.67-8.67-7.5-18.78-6.65-26.16,.8-6.88,1.05-10.64-2.47-14.16-3.52-3.52-7.28-3.27-14.16-2.47-7.38,.86-17.48,2.03-26.16-6.65-8.67-8.67-7.5-18.78-6.65-26.16,.8-6.88,1.05-10.64-2.47-14.15-3.52-3.52-7.27-3.27-14.15-2.47-7.38,.86-17.48,2.03-26.16-6.65s-7.5-18.78-6.65-26.16c.8-6.88,1.05-10.64-2.47-14.15l10.32-10.32c8.67,8.67,7.5,18.78,6.65,26.16-.8,6.88-1.05,10.63,2.47,14.15,3.52,3.52,7.28,3.27,14.15,2.47,7.38-.86,17.48-2.03,26.16,6.65,8.67,8.67,7.5,18.78,6.65,26.16-.8,6.88-1.05,10.64,2.47,14.15,3.52,3.52,7.27,3.27,14.16,2.47,7.38-.85,17.48-2.02,26.16,6.65,8.67,8.67,7.5,18.78,6.65,26.16-.8,6.88-1.05,10.64,2.47,14.16l-10.32,10.32Z"/><path class="t" d="M916.37,168.18c-8.68-8.67-7.5-18.78-6.65-26.16,.8-6.88,1.05-10.64-2.47-14.16-3.52-3.52-7.28-3.27-14.16-2.47-7.38,.86-17.48,2.03-26.16-6.65-8.67-8.67-7.5-18.78-6.65-26.16,.8-6.88,1.05-10.64-2.47-14.15s-7.27-3.27-14.15-2.47c-7.38,.86-17.48,2.03-26.16-6.65s-7.5-18.78-6.65-26.16c.8-6.88,1.05-10.64-2.47-14.15l10.32-10.32c8.67,8.67,7.5,18.78,6.65,26.16-.8,6.88-1.05,10.63,2.47,14.15,3.52,3.52,7.28,3.27,14.15,2.47,7.38-.86,17.48-2.03,26.16,6.65,8.67,8.67,7.5,18.78,6.65,26.16-.8,6.88-1.05,10.64,2.47,14.16s7.27,3.27,14.16,2.47c7.38-.85,17.48-2.03,26.16,6.65,8.67,8.67,7.5,18.78,6.65,26.16-.8,6.88-1.05,10.64,2.47,14.16l-10.32,10.32Z"/><path class="t" d="M941.71,142.84c-8.67-8.67-7.5-18.78-6.65-26.16,.8-6.88,1.05-10.64-2.47-14.16-3.52-3.52-7.27-3.27-14.16-2.47-7.38,.85-17.48,2.03-26.16-6.65-8.67-8.67-7.5-18.78-6.65-26.16,.8-6.88,1.05-10.64-2.47-14.15-3.52-3.52-7.28-3.27-14.15-2.47-7.38,.85-17.48,2.03-26.16-6.65-8.67-8.67-7.5-18.78-6.65-26.16,.8-6.88,1.05-10.64-2.47-14.15l10.32-10.32c8.67,8.67,7.5,18.78,6.65,26.16-.8,6.88-1.05,10.64,2.47,14.15,3.52,3.52,7.27,3.27,14.15,2.47,7.38-.86,17.48-2.03,26.16,6.65,8.67,8.67,7.5,18.78,6.65,26.16-.8,6.88-1.05,10.64,2.47,14.16,3.52,3.52,7.27,3.27,14.16,2.47,7.37-.85,17.48-2.03,26.16,6.65,8.67,8.67,7.5,18.78,6.65,26.16-.8,6.88-1.05,10.64,2.47,14.16l-10.32,10.32Z"/><path class="t" d="M967.05,117.5c-8.67-8.67-7.5-18.78-6.65-26.16,.8-6.88,1.05-10.64-2.47-14.16-3.52-3.52-7.28-3.27-14.16-2.47-7.38,.85-17.48,2.03-26.16-6.65-8.67-8.67-7.5-18.78-6.65-26.16,.8-6.88,1.05-10.64-2.47-14.15-3.52-3.52-7.27-3.27-14.15-2.47-7.38,.85-17.48,2.03-26.16-6.65-8.67-8.67-7.5-18.78-6.65-26.16,.8-6.88,1.05-10.64-2.47-14.16l10.32-10.32c8.67,8.67,7.5,18.78,6.65,26.16-.8,6.88-1.05,10.64,2.47,14.16,3.52,3.52,7.27,3.27,14.15,2.47,7.38-.86,17.48-2.03,26.16,6.65,8.67,8.67,7.5,18.78,6.65,26.16-.8,6.88-1.05,10.64,2.47,14.15,3.52,3.52,7.27,3.27,14.16,2.47,7.38-.85,17.48-2.03,26.16,6.65,8.67,8.68,7.5,18.78,6.65,26.16-.8,6.88-1.05,10.64,2.47,14.16l-10.32,10.32Z"/><path class="t" d="M992.39,92.17c-8.67-8.68-7.5-18.78-6.65-26.16,.8-6.88,1.05-10.64-2.47-14.16-3.52-3.52-7.27-3.27-14.16-2.47-7.38,.85-17.48,2.03-26.16-6.65-8.67-8.67-7.5-18.78-6.65-26.16,.8-6.88,1.05-10.64-2.47-14.16-3.52-3.52-7.27-3.27-14.15-2.47-7.38,.86-17.48,2.03-26.16-6.65-8.67-8.67-7.5-18.78-6.65-26.16,.8-6.88,1.05-10.64-2.47-14.15l10.32-10.32c8.67,8.67,7.5,18.78,6.65,26.16-.8,6.88-1.05,10.64,2.47,14.16,3.52,3.52,7.27,3.27,14.15,2.47,7.38-.86,17.48-2.03,26.16,6.65,8.67,8.67,7.5,18.78,6.65,26.16-.8,6.88-1.05,10.63,2.47,14.15,3.52,3.52,7.27,3.27,14.16,2.47,7.38-.85,17.48-2.03,26.16,6.65,8.67,8.68,7.5,18.78,6.65,26.16-.8,6.88-1.05,10.64,2.47,14.16l-10.32,10.32Z"/></g></g></g><g><rect class="u" x="160.44" y="160.64" width="160.37" height="160.37" transform="translate(-.19 481.45) rotate(-90)"/><polygon class="t" points="320.82 321.01 320.82 280.92 160.44 321.01 320.82 321.01"/><polygon class="t" points="320.82 280.92 320.82 240.82 160.44 280.92 320.82 280.92"/><polygon class="t" points="320.82 240.82 320.82 200.73 160.44 240.82 320.82 240.82"/><polygon class="t" points="320.82 200.73 320.82 160.64 160.44 200.73 320.82 200.73"/></g><g><rect class="u" x="641.48" y="481.45" width="160.51" height="160.51" transform="translate(160.03 1283.44) rotate(-90)"/><polygon class="t" points="801.98 641.96 801.98 601.83 641.48 641.96 801.98 641.96"/><polygon class="t" points="801.98 601.83 801.98 561.7 641.48 601.83 801.98 601.83"/><polygon class="t" points="801.98 561.7 801.98 521.58 641.48 561.7 801.98 561.7"/><polygon class="t" points="801.98 521.58 801.98 481.45 641.48 521.58 801.98 521.58"/></g><g><rect class="t" x="320.69" y="321.08" width="160.44" height="160.44" transform="translate(-.39 802.21) rotate(-90)"/><rect class="v" x="360.8" y="361.19" width="80.22" height="80.22" transform="translate(-.39 802.21) rotate(-90)"/></g><g><rect class="v" x="481.66" y=".18" width="160.44" height="160.32" transform="translate(481.54 642.23) rotate(-90)"/><rect class="t" x="505.03" y="23.31" width="113.71" height="113.71" transform="translate(107.89 420.79) rotate(-45)"/></g><g><rect class="u" x="160.52" y=".19" width="160.45" height="160.45" transform="translate(160.32 321.15) rotate(-90)"/><g class="ag"><g><path class="t" d="M328.19,173.8v14.61c-12.28,0-18.6-7.98-23.22-13.81-4.31-5.43-6.78-8.27-11.77-8.27s-7.46,2.84-11.77,8.27c-4.62,5.83-10.94,13.81-23.22,13.81-12.28,0-18.6-7.98-23.21-13.81-4.3-5.43-6.78-8.27-11.76-8.27s-7.46,2.84-11.76,8.27c-4.62,5.83-10.94,13.81-23.21,13.81s-18.6-7.98-23.21-13.81c-4.3-5.43-6.78-8.27-11.76-8.27v-14.61c12.28,0,18.6,7.98,23.21,13.81,4.3,5.43,6.78,8.27,11.76,8.27s7.46-2.84,11.76-8.27c4.62-5.83,10.94-13.81,23.21-13.81,12.28,0,18.6,7.98,23.21,13.81,4.3,5.43,6.78,8.27,11.76,8.27s7.46-2.84,11.77-8.27c4.62-5.83,10.94-13.81,23.22-13.81s18.6,7.98,23.22,13.81c4.31,5.43,6.78,8.27,11.77,8.27Z"/><path class="t" d="M328.19,137.94v14.61c-12.28,0-18.6-7.98-23.22-13.81-4.31-5.43-6.78-8.27-11.77-8.27s-7.46,2.84-11.77,8.27c-4.62,5.83-10.94,13.81-23.22,13.81-12.28,0-18.6-7.98-23.21-13.81-4.3-5.43-6.78-8.27-11.76-8.27s-7.46,2.84-11.76,8.27c-4.62,5.83-10.94,13.81-23.21,13.81-12.28,0-18.6-7.98-23.21-13.81-4.3-5.43-6.78-8.27-11.76-8.27v-14.61c12.28,0,18.6,7.98,23.21,13.81,4.31,5.43,6.78,8.27,11.76,8.27s7.46-2.84,11.76-8.27c4.62-5.83,10.94-13.81,23.21-13.81,12.28,0,18.6,7.98,23.21,13.81,4.3,5.43,6.78,8.27,11.76,8.27s7.46-2.84,11.77-8.27c4.62-5.83,10.94-13.81,23.22-13.81s18.6,7.98,23.22,13.81c4.31,5.43,6.78,8.27,11.77,8.27Z"/><path class="t" d="M328.19,102.08v14.61c-12.28,0-18.6-7.98-23.22-13.81-4.31-5.43-6.78-8.27-11.77-8.27s-7.46,2.84-11.77,8.27c-4.62,5.83-10.94,13.81-23.22,13.81-12.28,0-18.6-7.98-23.21-13.81-4.3-5.43-6.78-8.27-11.76-8.27s-7.46,2.84-11.76,8.27c-4.62,5.83-10.94,13.81-23.21,13.81-12.28,0-18.6-7.98-23.21-13.81-4.3-5.43-6.78-8.27-11.76-8.27v-14.61c12.28,0,18.6,7.98,23.21,13.81,4.3,5.43,6.78,8.27,11.76,8.27s7.46-2.84,11.76-8.27c4.62-5.83,10.94-13.81,23.21-13.81,12.28,0,18.6,7.98,23.21,13.81,4.3,5.43,6.78,8.27,11.76,8.27s7.46-2.84,11.77-8.27c4.62-5.83,10.94-13.81,23.22-13.81s18.6,7.98,23.22,13.81c4.31,5.43,6.78,8.27,11.77,8.27Z"/><path class="t" d="M328.19,66.22v14.61c-12.28,0-18.6-7.98-23.22-13.81-4.31-5.43-6.78-8.27-11.77-8.27s-7.46,2.84-11.77,8.27c-4.62,5.83-10.94,13.81-23.22,13.81-12.28,0-18.6-7.98-23.21-13.81-4.3-5.43-6.78-8.27-11.76-8.27s-7.46,2.84-11.76,8.27c-4.62,5.83-10.94,13.81-23.21,13.81s-18.6-7.98-23.21-13.81c-4.3-5.43-6.78-8.27-11.76-8.27v-14.61c12.28,0,18.6,7.98,23.21,13.81,4.31,5.43,6.78,8.27,11.76,8.27s7.46-2.84,11.76-8.27c4.62-5.83,10.94-13.81,23.21-13.81s18.6,7.98,23.21,13.81c4.3,5.43,6.78,8.27,11.76,8.27s7.46-2.84,11.77-8.27c4.62-5.83,10.94-13.81,23.22-13.81,12.28,0,18.6,7.98,23.22,13.81,4.31,5.43,6.78,8.27,11.77,8.27Z"/><path class="t" d="M328.19,30.36v14.61c-12.28,0-18.6-7.98-23.22-13.81-4.31-5.43-6.78-8.27-11.77-8.27s-7.46,2.84-11.77,8.27c-4.62,5.83-10.94,13.81-23.22,13.81s-18.6-7.98-23.21-13.81c-4.3-5.43-6.78-8.27-11.76-8.27s-7.46,2.84-11.76,8.27c-4.62,5.83-10.94,13.81-23.21,13.81-12.28,0-18.6-7.98-23.21-13.81-4.3-5.43-6.78-8.27-11.76-8.27V8.28c12.28,0,18.6,7.98,23.21,13.81,4.3,5.43,6.78,8.27,11.76,8.27s7.46-2.84,11.76-8.27c4.62-5.83,10.94-13.81,23.21-13.81,12.28,0,18.6,7.98,23.21,13.81,4.3,5.43,6.78,8.27,11.76,8.27,4.98,0,7.46-2.84,11.77-8.27,4.62-5.83,10.94-13.81,23.22-13.81,12.28,0,18.6,7.98,23.22,13.81,4.31,5.43,6.78,8.27,11.77,8.27Z"/><path class="t" d="M328.19-5.51V9.1c-12.28,0-18.6-7.98-23.22-13.81-4.31-5.43-6.78-8.27-11.77-8.27s-7.46,2.84-11.77,8.27c-4.62,5.83-10.94,13.81-23.22,13.81-12.28,0-18.6-7.98-23.21-13.81-4.3-5.43-6.78-8.27-11.76-8.27s-7.46,2.84-11.76,8.27c-4.62,5.83-10.94,13.81-23.21,13.81-12.28,0-18.6-7.98-23.21-13.81-4.3-5.43-6.78-8.27-11.76-8.27v-14.61c12.28,0,18.6,7.98,23.21,13.81,4.31,5.43,6.78,8.27,11.76,8.27s7.46-2.84,11.76-8.27c4.62-5.83,10.94-13.81,23.21-13.81,12.28,0,18.6,7.98,23.21,13.81,4.3,5.43,6.78,8.27,11.76,8.27s7.46-2.84,11.77-8.27c4.62-5.83,10.94-13.81,23.22-13.81,12.28,0,18.6,7.98,23.22,13.81,4.31,5.43,6.78,8.27,11.77,8.27Z"/></g></g></g><g><rect class="u" x="641.75" y="160.63" width="160.45" height="160.45" transform="translate(481.11 962.83) rotate(-90)"/><g class="af"><g><path class="t" d="M774.44,312.17c12.27,0,18.59,7.98,23.21,13.81,1.75,2.2,3.18,3.97,4.62,5.3v16.57c-7.78-2.33-12.45-8.23-16.07-12.8-4.3-5.43-6.79-8.27-11.76-8.27s-7.47,2.84-11.77,8.27c-4.61,5.83-10.94,13.81-23.21,13.81s-18.6-7.98-23.21-13.81c-4.3-5.43-6.79-8.27-11.76-8.27-4.98,0-7.46,2.84-11.76,8.27-4.61,5.83-10.94,13.81-23.21,13.81-12.28,0-18.6-7.98-23.21-13.81-1.88-2.37-3.4-4.24-4.94-5.6v-16.37c7.97,2.26,12.72,8.26,16.39,12.89,4.3,5.43,6.78,8.27,11.76,8.27s7.46-2.84,11.76-8.27c4.61-5.83,10.94-13.81,23.21-13.81s18.6,7.98,23.21,13.81c4.3,5.43,6.78,8.27,11.76,8.27,4.98,0,7.46-2.84,11.76-8.27,4.61-5.83,10.94-13.81,23.22-13.81Z"/><path class="t" d="M774.44,276.31c12.27,0,18.59,7.98,23.21,13.81,1.75,2.2,3.18,3.97,4.62,5.3v16.56c-7.78-2.33-12.45-8.23-16.07-12.8-4.3-5.43-6.79-8.27-11.76-8.27s-7.47,2.84-11.77,8.27c-4.61,5.83-10.94,13.81-23.21,13.81-12.28,0-18.6-7.98-23.21-13.81-4.3-5.43-6.79-8.27-11.76-8.27s-7.46,2.84-11.76,8.27c-4.61,5.83-10.94,13.81-23.21,13.81s-18.6-7.98-23.21-13.81c-1.88-2.37-3.4-4.24-4.94-5.6v-16.36c7.97,2.26,12.72,8.26,16.39,12.89,4.3,5.43,6.78,8.27,11.76,8.27s7.46-2.84,11.76-8.27c4.61-5.83,10.94-13.81,23.21-13.81,12.27,0,18.6,7.98,23.21,13.81,4.3,5.43,6.78,8.27,11.76,8.27s7.46-2.84,11.76-8.27c4.61-5.83,10.94-13.81,23.22-13.81Z"/><path class="t" d="M774.44,240.45c12.27,0,18.59,7.98,23.21,13.81,1.75,2.2,3.18,3.97,4.62,5.3v16.56c-7.78-2.32-12.45-8.22-16.07-12.79-4.3-5.43-6.79-8.27-11.76-8.27-4.98,0-7.47,2.84-11.77,8.27-4.61,5.83-10.94,13.81-23.21,13.81s-18.6-7.98-23.21-13.81c-4.3-5.43-6.79-8.27-11.76-8.27-4.98,0-7.46,2.84-11.76,8.27-4.61,5.83-10.94,13.81-23.21,13.81-12.28,0-18.6-7.98-23.21-13.81-1.88-2.37-3.4-4.24-4.94-5.6v-16.36c7.97,2.26,12.72,8.26,16.39,12.89,4.3,5.43,6.78,8.27,11.76,8.27s7.46-2.84,11.76-8.27c4.61-5.83,10.94-13.81,23.21-13.81s18.6,7.98,23.21,13.81c4.3,5.43,6.78,8.27,11.76,8.27,4.98,0,7.46-2.84,11.76-8.27,4.61-5.83,10.94-13.81,23.22-13.81Z"/><path class="t" d="M774.44,204.58c12.27,0,18.59,7.98,23.21,13.81,1.75,2.2,3.18,3.98,4.62,5.31v16.56c-7.78-2.32-12.45-8.22-16.07-12.79-4.3-5.43-6.79-8.27-11.76-8.27s-7.47,2.84-11.77,8.27c-4.61,5.83-10.94,13.81-23.21,13.81-12.28,0-18.6-7.98-23.21-13.81-4.3-5.43-6.79-8.27-11.76-8.27-4.98,0-7.46,2.84-11.76,8.27-4.61,5.83-10.94,13.81-23.21,13.81s-18.6-7.98-23.21-13.81c-1.88-2.37-3.4-4.24-4.94-5.6v-16.37c7.97,2.26,12.72,8.26,16.39,12.9,4.3,5.43,6.78,8.27,11.76,8.27,4.98,0,7.46-2.84,11.76-8.27,4.61-5.83,10.94-13.81,23.21-13.81s18.6,7.98,23.21,13.81c4.3,5.43,6.78,8.27,11.76,8.27,4.98,0,7.46-2.84,11.76-8.27,4.61-5.82,10.94-13.81,23.22-13.81Z"/><path class="t" d="M774.44,168.72c12.27,0,18.59,7.98,23.21,13.81,1.75,2.2,3.18,3.97,4.62,5.3v16.56c-7.78-2.32-12.45-8.22-16.07-12.79-4.3-5.43-6.79-8.27-11.76-8.27-4.98,0-7.47,2.84-11.77,8.27-4.61,5.83-10.94,13.81-23.21,13.81-12.28,0-18.6-7.98-23.21-13.81-4.3-5.43-6.79-8.27-11.76-8.27-4.98,0-7.46,2.84-11.76,8.27-4.61,5.83-10.94,13.81-23.21,13.81s-18.6-7.98-23.21-13.81c-1.88-2.37-3.4-4.24-4.94-5.6v-16.37c7.97,2.26,12.72,8.26,16.39,12.89,4.3,5.43,6.78,8.27,11.76,8.27,4.98,0,7.46-2.84,11.76-8.27,4.61-5.83,10.94-13.81,23.21-13.81,12.27,0,18.6,7.98,23.21,13.81,4.3,5.43,6.78,8.27,11.76,8.27s7.46-2.84,11.76-8.27c4.61-5.83,10.94-13.81,23.22-13.81Z"/><path class="t" d="M774.44,132.86c12.27,0,18.59,7.98,23.21,13.81,1.75,2.2,3.18,3.97,4.62,5.3v16.56c-7.78-2.32-12.45-8.22-16.07-12.79-4.3-5.43-6.79-8.27-11.76-8.27s-7.47,2.84-11.77,8.27c-4.61,5.83-10.94,13.81-23.21,13.81s-18.6-7.98-23.21-13.81c-4.3-5.43-6.79-8.26-11.76-8.26-4.98,0-7.46,2.84-11.76,8.27-4.61,5.83-10.94,13.81-23.21,13.81-12.28,0-18.6-7.98-23.21-13.81-1.88-2.37-3.4-4.24-4.94-5.6v-16.36c7.97,2.26,12.72,8.26,16.39,12.89,4.3,5.43,6.78,8.27,11.76,8.27,4.98,0,7.46-2.84,11.76-8.27,4.61-5.83,10.94-13.81,23.21-13.81s18.6,7.98,23.21,13.81c4.3,5.43,6.78,8.27,11.76,8.27,4.98,0,7.46-2.84,11.76-8.27,4.61-5.83,10.94-13.81,23.22-13.81Z"/></g></g></g><g><rect class="t" x="481.42" y="160.56" width="160.32" height="160.32" transform="translate(1123.17 481.45) rotate(-180)"/><polygon class="u" points="641.51 160.56 481.18 160.56 561.34 320.89 641.51 160.56"/></g><g><rect class="v" x="80.26" y="80.38" width="80.26" height="80.26" transform="translate(-.12 240.9) rotate(-90)"/><polygon class="t" points="160.52 160.64 160.52 80.38 80.26 120.51 160.52 160.64"/><rect class="v" x="0" y="80.38" width="80.26" height="80.26" transform="translate(-80.38 160.64) rotate(-90)"/><polygon class="u" points="80.26 160.64 80.26 80.38 0 120.51 80.26 160.64"/><rect class="v" x="80.26" y=".12" width="80.26" height="80.26" transform="translate(80.14 160.64) rotate(-90)"/><polygon class="t" points="160.52 80.38 160.52 .12 80.26 40.25 160.52 80.38"/><rect class="v" x="0" y=".12" width="80.26" height="80.26" transform="translate(-.12 80.38) rotate(-90)"/><polygon class="t" points="80.26 80.38 80.26 .12 0 40.25 80.26 80.38"/></g><g><rect class="v" x="641.97" y="401.3" width="80.23" height="80.23"/><polygon class="v" points="641.97 481.52 722.2 481.52 682.08 401.3 641.97 481.52"/><rect class="v" x="641.97" y="321.07" width="80.23" height="80.23"/><polygon class="u" points="641.97 401.3 722.2 401.3 682.08 321.07 641.97 401.3"/><rect class="v" x="722.2" y="401.3" width="80.23" height="80.23"/><polygon class="t" points="722.2 481.52 802.42 481.52 762.31 401.3 722.2 481.52"/><rect class="v" x="722.2" y="321.07" width="80.23" height="80.23"/><polygon class="v" points="722.2 401.3 802.42 401.3 762.31 321.07 722.2 401.3"/></g><g><polygon class="v" points=".12 321.08 .12 481.52 80.28 401.24 .12 321.08"/><polygon class="u" points="160.32 321.08 .12 321.08 80.28 401.24 160.32 321.08"/><polygon class="v" points="80.28 401.24 160.56 481.52 160.56 321.08 160.32 321.08 80.28 401.24"/><polygon class="t" points=".12 481.52 160.56 481.52 80.28 401.24 .12 481.52"/></g><g><rect class="t" x="320.9" y="481.52" width="160.45" height="160.45"/><path class="u" d="M320.9,481.52h160.45v160.21h-.24c-88.48,0-160.21-71.73-160.21-160.21Z"/></g><g><rect class="u" x="320.96" y=".12" width="160.52" height="160.52"/><path class="t" d="M481.48,160.64l-160.52-.12V.24h.24c88.52,0,160.28,71.88,160.28,160.4Z"/><path class="u" d="M401.25,160.52h-80.26V80.38h.12c44.26,0,80.14,35.88,80.14,80.14Z"/></g><g><path class="t" d="M363.49,278.34c-24.69-7.48-42.67-30.42-42.67-57.56v100.23h100.21c-27.13,0-50.06-17.98-57.54-42.67Z"/><path class="t" d="M421.06,321.01h60.12v-60.12c0,33.2-26.92,60.11-60.12,60.12Z"/><path class="t" d="M320.82,220.78c0-33.21,26.92-60.14,60.14-60.14h-60.14v60.14Z"/><path class="t" d="M438.51,203.31c24.69,7.48,42.66,30.41,42.67,57.54v-100.21h-100.23c27.14,0,50.07,17.98,57.56,42.67Z"/><path class="v" d="M320.82,220.78c0,27.14,17.98,50.07,42.67,57.56-1.68-5.53-2.58-11.39-2.58-17.47,0-33.21,26.92-60.14,60.14-60.14,6.08,0,11.94,.9,17.47,2.58-7.48-24.69-30.42-42.67-57.56-42.67-33.21,0-60.14,26.92-60.14,60.14Z"/><path class="t" d="M421.04,321.01h0Z"/><path class="t" d="M481.18,260.87v0Z"/><path class="v" d="M438.51,203.31c1.68,5.53,2.58,11.39,2.58,17.47,0,33.21-26.92,60.14-60.14,60.14-6.07,0-11.94-.9-17.47-2.58,7.48,24.69,30.41,42.66,57.54,42.67h.03c33.2,0,60.11-26.92,60.12-60.12v-.03c0-27.13-17.98-50.06-42.67-57.54Z"/><path class="u" d="M441.09,220.78c0-6.08-.9-11.94-2.58-17.47-5.53-1.68-11.39-2.58-17.47-2.58-33.21,0-60.14,26.92-60.14,60.14,0,6.08,.9,11.94,2.58,17.47,5.53,1.68,11.39,2.58,17.47,2.58,33.21,0,60.14-26.92,60.14-60.14Z"/></g><g><rect class="v" x="801.93" y="481.58" width="160.45" height="160.34" transform="translate(320.41 1443.9) rotate(-90)"/><rect class="t" x="842.04" y="521.66" width="80.23" height="80.17" transform="translate(320.41 1443.9) rotate(-90)"/></g><g><path class="t" d="M845.09,438.83c-24.69-7.49-42.66-30.43-42.66-57.59v100.28h100.2c-27.13,0-50.05-17.99-57.53-42.69Z"/><path class="t" d="M902.65,481.52h60.11v-60.15c0,33.22-26.92,60.14-60.11,60.15Z"/><path class="t" d="M802.42,381.25c0-33.23,26.92-60.17,60.13-60.17h-60.13v60.17Z"/><path class="t" d="M920.1,363.77c24.68,7.49,42.66,30.43,42.66,57.57v-100.26h-100.21c27.13,0,50.06,17.99,57.55,42.69Z"/><path class="v" d="M802.42,381.25c0,27.15,17.97,50.1,42.66,57.59-1.67-5.53-2.58-11.4-2.58-17.47,0-33.23,26.92-60.17,60.13-60.17,6.07,0,11.94,.9,17.46,2.58-7.48-24.71-30.41-42.69-57.55-42.69-33.21,0-60.13,26.94-60.13,60.17Z"/><path class="t" d="M902.64,481.52s.01,0,.02,0h-.02Z"/><path class="t" d="M962.76,421.36v0Z"/><path class="u" d="M920.1,363.77c1.67,5.53,2.58,11.4,2.58,17.47,0,33.23-26.92,60.17-60.13,60.17-6.07,0-11.94-.9-17.46-2.58,7.48,24.7,30.41,42.68,57.53,42.69h.03c33.19,0,60.1-26.93,60.11-60.15v-.03c0-27.14-17.98-50.08-42.66-57.57Z"/><path class="u" d="M922.68,381.25c0-6.08-.9-11.94-2.58-17.47-5.53-1.68-11.39-2.58-17.46-2.58-33.21,0-60.13,26.94-60.13,60.17,0,6.08,.9,11.94,2.58,17.47,5.53,1.68,11.39,2.58,17.46,2.58,33.21,0,60.13-26.94,60.13-60.17Z"/></g><g><rect class="t" x="481.35" y="481.53" width="160.13" height="160.13"/><circle class="u" cx="521.5" cy="521.68" r="39.91"/><circle class="v" cx="521.5" cy="601.62" r="39.91"/><circle class="u" cx="601.45" cy="521.68" r="39.91"/><circle class="v" cx="601.45" cy="601.62" r="39.91"/></g><g class="ae"><g><rect class="t" x="514.97" y="449.29" width="227.37" height="37.9" transform="translate(-146.96 581.67) rotate(-45)"/><rect class="u" x="488.18" y="422.49" width="227.37" height="37.89" transform="translate(-135.86 554.87) rotate(-45)"/><rect class="t" x="461.38" y="395.7" width="227.37" height="37.89" transform="translate(-124.76 528.08) rotate(-45)"/><g><rect class="u" x="380.99" y="315.31" width="227.37" height="37.89" transform="translate(-91.47 447.69) rotate(-45)"/><rect class="t" x="407.79" y="342.1" width="227.37" height="37.89" transform="translate(-102.56 474.48) rotate(-45)"/><rect class="u" x="434.59" y="368.9" width="227.37" height="37.9" transform="translate(-113.66 501.28) rotate(-45)"/></g></g></g><g class="ad"><g><rect class="t" x="33.52" y="288.84" width="227.37" height="37.9" transform="translate(-174.53 194.24) rotate(-45)"/><rect class="u" x="6.73" y="262.05" width="227.37" height="37.89" transform="translate(-163.43 167.44) rotate(-45)"/><rect class="t" x="-20.07" y="235.25" width="227.37" height="37.89" transform="translate(-152.33 140.65) rotate(-45)"/><g><rect class="u" x="-100.46" y="154.86" width="227.37" height="37.89" transform="translate(-119.03 60.26) rotate(-45)"/><rect class="t" x="-73.66" y="181.66" width="227.37" height="37.89" transform="translate(-130.13 87.05) rotate(-45)"/><rect class="u" x="-46.87" y="208.45" width="227.37" height="37.9" transform="translate(-141.23 113.85) rotate(-45)"/></g></g></g></g></g><g class="ac"><g><rect class="v" x="1603.61" y="160.25" width="160.44" height="160.44" transform="translate(1924.3 -1443.35) rotate(90)"/><g><rect class="t" x="1603.6" y="-.2" width="160.45" height="160.45" transform="translate(1763.85 -1603.8) rotate(90)"/><g><rect class="v" x="1737.31" y="-.2" width="26.74" height="26.74" transform="translate(1763.85 -1737.51) rotate(90)"/><rect class="v" x="1710.57" y="26.54" width="26.74" height="26.74" transform="translate(1763.85 -1684.03) rotate(90)"/><rect class="v" x="1683.82" y="-.2" width="26.74" height="26.74" transform="translate(1710.36 -1684.03) rotate(90)"/><rect class="v" x="1737.31" y="53.28" width="26.74" height="26.74" transform="translate(1817.33 -1684.03) rotate(90)"/><rect class="v" x="1710.57" y="80.02" width="26.74" height="26.74" transform="translate(1817.33 -1630.54) rotate(90)"/><rect class="v" x="1683.82" y="53.28" width="26.74" height="26.74" transform="translate(1763.85 -1630.54) rotate(90)"/><rect class="v" x="1630.34" y="-.2" width="26.74" height="26.74" transform="translate(1656.88 -1630.54) rotate(90)"/><rect class="v" x="1657.08" y="26.54" width="26.74" height="26.74" transform="translate(1710.36 -1630.54) rotate(90)"/><rect class="v" x="1603.6" y="26.54" width="26.74" height="26.74" transform="translate(1656.88 -1577.06) rotate(90)"/><rect class="v" x="1630.34" y="53.28" width="26.74" height="26.74" transform="translate(1710.36 -1577.06) rotate(90)"/><rect class="v" x="1657.08" y="80.02" width="26.74" height="26.74" transform="translate(1763.85 -1577.06) rotate(90)"/><rect class="v" x="1603.6" y="80.02" width="26.74" height="26.74" transform="translate(1710.36 -1523.57) rotate(90)"/><rect class="v" x="1630.34" y="106.77" width="26.74" height="26.74" transform="translate(1763.85 -1523.57) rotate(90)"/><rect class="v" x="1657.08" y="133.51" width="26.74" height="26.74" transform="translate(1817.33 -1523.57) rotate(90)"/><rect class="v" x="1603.6" y="133.51" width="26.74" height="26.74" transform="translate(1763.85 -1470.09) rotate(90)"/><rect class="v" x="1737.31" y="106.77" width="26.74" height="26.74" transform="translate(1870.82 -1630.54) rotate(90)"/><rect class="v" x="1710.57" y="133.51" width="26.74" height="26.74" transform="translate(1870.82 -1577.06) rotate(90)"/><rect class="v" x="1683.82" y="106.77" width="26.74" height="26.74" transform="translate(1817.33 -1577.06) rotate(90)"/></g></g><g><rect class="u" x="1764.05" y=".13" width="26.72" height="160.32"/><rect class="t" x="1790.77" y=".13" width="26.72" height="160.32"/><rect class="u" x="1817.49" y=".13" width="26.72" height="160.32"/><g><rect class="t" x="1897.65" y=".13" width="26.72" height="160.32"/><rect class="u" x="1870.93" y=".13" width="26.72" height="160.32"/><rect class="t" x="1844.21" y=".13" width="26.72" height="160.32"/></g></g><g><rect class="v" x="1121.77" y="481.14" width="26.74" height="160.43"/><rect class="u" x="1148.51" y="481.14" width="26.74" height="160.43"/><rect class="v" x="1175.25" y="481.14" width="26.74" height="160.43"/><g><rect class="u" x="1255.47" y="481.14" width="26.74" height="160.43"/><rect class="v" x="1228.73" y="481.14" width="26.74" height="160.43"/><rect class="u" x="1201.99" y="481.14" width="26.74" height="160.43"/></g></g><g><rect class="u" x="1763.81" y="321.01" width="160.8" height="160.32" transform="translate(2245.38 -1443.04) rotate(90)"/><g><circle class="t" cx="1911.01" cy="334.61" r="13.36"/><circle class="t" cx="1911.01" cy="361.33" r="13.36"/><circle class="t" cx="1911.01" cy="388.05" r="13.36"/><circle class="t" cx="1911.01" cy="414.77" r="13.36"/><circle class="t" cx="1911.01" cy="441.49" r="13.36"/><circle class="t" cx="1911.01" cy="468.21" r="13.36"/><circle class="t" cx="1884.29" cy="361.33" r="13.36"/><circle class="t" cx="1884.29" cy="388.05" r="13.36"/><circle class="t" cx="1884.29" cy="414.77" r="13.36"/><circle class="t" cx="1884.29" cy="441.49" r="13.36"/><circle class="t" cx="1884.29" cy="468.21" r="13.36"/><circle class="t" cx="1857.57" cy="361.33" r="13.36"/><circle class="t" cx="1857.57" cy="388.05" r="13.36"/><circle class="t" cx="1857.57" cy="414.77" r="13.36"/><circle class="t" cx="1857.57" cy="441.49" r="13.36"/><circle class="t" cx="1857.57" cy="468.21" r="13.36"/><circle class="t" cx="1830.85" cy="361.33" r="13.36"/><circle class="t" cx="1830.85" cy="388.05" r="13.36"/><circle class="t" cx="1830.85" cy="414.77" r="13.36"/><circle class="t" cx="1830.85" cy="441.49" r="13.36"/><circle class="t" cx="1830.85" cy="468.21" r="13.36"/><circle class="t" cx="1804.13" cy="361.33" r="13.36"/><circle class="t" cx="1804.13" cy="388.05" r="13.36"/><circle class="t" cx="1804.13" cy="414.77" r="13.36"/><circle class="t" cx="1804.13" cy="441.49" r="13.36"/><circle class="t" cx="1804.13" cy="468.21" r="13.36"/><circle class="t" cx="1777.41" cy="361.33" r="13.36"/><circle class="t" cx="1777.41" cy="388.05" r="13.36"/><circle class="t" cx="1777.41" cy="414.77" r="13.36"/><circle class="t" cx="1777.41" cy="441.49" r="13.36"/><circle class="t" cx="1777.41" cy="468.21" r="13.36"/><circle class="t" cx="1884.29" cy="334.61" r="13.36"/><circle class="t" cx="1857.57" cy="334.61" r="13.36"/><circle class="t" cx="1830.85" cy="334.61" r="13.36"/><circle class="t" cx="1804.13" cy="334.61" r="13.36"/><circle class="t" cx="1777.41" cy="334.61" r="13.36"/></g></g><g><circle class="u" cx="1683.97" cy="240.61" r="80.16"/><g class="ab"><g><path class="t" d="M1798.82,252.01c-8.67-8.67-7.5-18.78-6.65-26.16,.8-6.88,1.05-10.64-2.47-14.15-3.52-3.52-7.28-3.27-14.15-2.47-7.38,.86-17.48,2.03-26.16-6.65-8.67-8.67-7.5-18.78-6.65-26.16,.8-6.88,1.05-10.64-2.47-14.15-3.52-3.52-7.27-3.27-14.16-2.47-7.38,.86-17.48,2.03-26.16-6.65-8.67-8.68-7.5-18.78-6.65-26.16,.8-6.88,1.05-10.64-2.47-14.16l10.32-10.32c8.67,8.68,7.5,18.78,6.65,26.16-.8,6.88-1.05,10.64,2.47,14.16,3.52,3.52,7.27,3.27,14.16,2.47,7.38-.85,17.48-2.02,26.16,6.65,8.67,8.67,7.5,18.78,6.65,26.16-.8,6.88-1.05,10.64,2.47,14.15,3.52,3.52,7.27,3.27,14.15,2.47,7.38-.86,17.48-2.03,26.16,6.65,8.67,8.67,7.5,18.78,6.65,26.16-.8,6.88-1.05,10.64,2.47,14.15l-10.32,10.32Z"/><path class="t" d="M1773.48,277.35c-8.67-8.67-7.5-18.78-6.65-26.16,.8-6.88,1.05-10.64-2.47-14.15-3.52-3.52-7.28-3.27-14.15-2.47-7.38,.85-17.48,2.03-26.16-6.65-8.67-8.67-7.5-18.78-6.65-26.16,.8-6.88,1.05-10.64-2.47-14.15-3.52-3.52-7.28-3.27-14.16-2.47-7.38,.86-17.48,2.03-26.16-6.65-8.67-8.68-7.5-18.78-6.65-26.16,.8-6.88,1.05-10.64-2.47-14.16l10.32-10.32c8.67,8.68,7.5,18.78,6.65,26.16-.8,6.88-1.05,10.64,2.47,14.16,3.52,3.52,7.27,3.27,14.16,2.47,7.38-.85,17.48-2.02,26.16,6.65,8.67,8.67,7.5,18.78,6.65,26.16-.8,6.88-1.05,10.64,2.47,14.15,3.52,3.52,7.28,3.27,14.15,2.47,7.38-.86,17.48-2.03,26.16,6.65,8.67,8.67,7.5,18.78,6.65,26.16-.8,6.88-1.05,10.64,2.47,14.15l-10.32,10.32Z"/><path class="t" d="M1748.14,302.69c-8.67-8.67-7.5-18.78-6.65-26.16,.8-6.88,1.05-10.64-2.47-14.15s-7.27-3.27-14.15-2.47c-7.38,.86-17.48,2.03-26.16-6.65-8.67-8.67-7.5-18.78-6.65-26.16,.8-6.88,1.05-10.64-2.47-14.15-3.52-3.52-7.28-3.27-14.16-2.47-7.38,.86-17.48,2.03-26.16-6.65-8.67-8.68-7.5-18.78-6.65-26.16,.8-6.88,1.05-10.64-2.47-14.16l10.32-10.32c8.68,8.68,7.5,18.78,6.65,26.16-.8,6.88-1.05,10.64,2.47,14.16,3.52,3.52,7.28,3.27,14.16,2.47,7.38-.85,17.48-2.02,26.16,6.65,8.67,8.67,7.5,18.78,6.65,26.16-.8,6.88-1.05,10.64,2.47,14.16,3.52,3.52,7.27,3.27,14.15,2.47,7.38-.86,17.48-2.03,26.16,6.65,8.67,8.67,7.5,18.78,6.65,26.16-.8,6.88-1.05,10.64,2.47,14.15l-10.32,10.32Z"/><path class="t" d="M1722.8,328.02c-8.67-8.67-7.5-18.78-6.65-26.16,.8-6.88,1.05-10.64-2.47-14.15-3.52-3.52-7.27-3.27-14.15-2.47-7.38,.86-17.48,2.03-26.16-6.65-8.67-8.67-7.5-18.78-6.65-26.16,.8-6.88,1.05-10.64-2.47-14.15-3.52-3.52-7.28-3.27-14.16-2.47-7.38,.86-17.48,2.02-26.16-6.65-8.67-8.68-7.5-18.78-6.65-26.16,.8-6.88,1.05-10.64-2.47-14.16l10.32-10.32c8.68,8.68,7.5,18.78,6.65,26.16-.8,6.88-1.05,10.64,2.47,14.16,3.52,3.52,7.27,3.27,14.16,2.47,7.38-.85,17.48-2.03,26.16,6.65,8.67,8.67,7.5,18.78,6.65,26.16-.8,6.88-1.05,10.64,2.47,14.16,3.52,3.52,7.27,3.27,14.15,2.47,7.38-.86,17.48-2.03,26.16,6.65,8.67,8.67,7.5,18.78,6.65,26.16-.8,6.88-1.05,10.64,2.47,14.15l-10.32,10.32Z"/><path class="t" d="M1697.46,353.36c-8.67-8.67-7.5-18.78-6.65-26.16,.8-6.88,1.05-10.64-2.47-14.15-3.52-3.52-7.27-3.27-14.15-2.47-7.38,.86-17.48,2.03-26.16-6.65-8.67-8.67-7.5-18.78-6.65-26.16,.8-6.88,1.05-10.64-2.47-14.16-3.52-3.52-7.28-3.27-14.16-2.47-7.38,.86-17.48,2.03-26.16-6.65-8.67-8.68-7.5-18.78-6.65-26.16,.8-6.88,1.05-10.64-2.47-14.16l10.32-10.32c8.68,8.68,7.5,18.78,6.65,26.16-.8,6.88-1.05,10.64,2.47,14.16,3.52,3.52,7.28,3.27,14.16,2.47,7.38-.86,17.48-2.03,26.16,6.65,8.67,8.67,7.5,18.78,6.65,26.16-.8,6.88-1.05,10.64,2.47,14.16,3.52,3.52,7.27,3.27,14.15,2.47,7.38-.86,17.48-2.03,26.16,6.65,8.67,8.67,7.5,18.78,6.65,26.16-.8,6.88-1.05,10.64,2.47,14.15l-10.32,10.32Z"/><path class="t" d="M1672.12,378.7c-8.67-8.67-7.5-18.78-6.65-26.16,.8-6.88,1.05-10.64-2.47-14.15-3.52-3.52-7.27-3.27-14.15-2.47-7.38,.86-17.48,2.03-26.16-6.65-8.67-8.67-7.5-18.78-6.65-26.16,.8-6.88,1.05-10.64-2.47-14.16-3.52-3.52-7.27-3.27-14.16-2.47-7.38,.85-17.48,2.03-26.16-6.65s-7.5-18.78-6.65-26.16c.8-6.88,1.05-10.64-2.47-14.16l10.32-10.32c8.67,8.67,7.5,18.78,6.65,26.16-.8,6.88-1.05,10.64,2.47,14.16,3.52,3.52,7.28,3.27,14.16,2.47,7.38-.86,17.48-2.03,26.16,6.65,8.67,8.67,7.5,18.78,6.65,26.16-.8,6.88-1.05,10.64,2.47,14.16,3.52,3.52,7.27,3.27,14.15,2.47,7.38-.86,17.48-2.03,26.16,6.65,8.67,8.67,7.5,18.78,6.65,26.16-.8,6.88-1.05,10.64,2.47,14.15l-10.32,10.32Z"/></g></g></g><rect class="u" x="961.95" y="481.14" width="160.26" height="160.26" transform="translate(1603.35 -480.81) rotate(90)"/><g><rect class="v" x="961.91" y="320.75" width="160.44" height="160.34" transform="translate(1443.05 -641.21) rotate(90)"/><g><rect class="v" x="1095.57" y="320.7" width="26.74" height="26.72" transform="translate(1443 -774.87) rotate(90)"/><rect class="v" x="1068.84" y="347.44" width="26.74" height="26.72" transform="translate(1443.02 -721.41) rotate(90)"/><rect class="v" x="1042.12" y="320.7" width="26.74" height="26.72" transform="translate(1389.56 -721.43) rotate(90)"/><rect class="v" x="1095.57" y="374.19" width="26.74" height="26.72" transform="translate(1496.48 -721.39) rotate(90)"/><rect class="v" x="1068.84" y="400.93" width="26.74" height="26.72" transform="translate(1496.5 -667.93) rotate(90)"/><rect class="v" x="1042.12" y="374.19" width="26.74" height="26.72" transform="translate(1443.04 -667.95) rotate(90)"/><rect class="v" x="988.68" y="320.7" width="26.74" height="26.72" transform="translate(1336.11 -667.98) rotate(90)"/><rect class="v" x="1015.4" y="347.44" width="26.74" height="26.72" transform="translate(1389.57 -667.96) rotate(90)"/><rect class="v" x="961.95" y="347.44" width="26.74" height="26.72" transform="translate(1336.13 -614.52) rotate(90)"/><rect class="v" x="988.68" y="374.19" width="26.74" height="26.72" transform="translate(1389.59 -614.5) rotate(90)"/><rect class="v" x="1015.4" y="400.93" width="26.74" height="26.72" transform="translate(1443.06 -614.48) rotate(90)"/><rect class="v" x="961.95" y="400.93" width="26.74" height="26.72" transform="translate(1389.61 -561.04) rotate(90)"/><rect class="v" x="988.68" y="427.67" width="26.74" height="26.72" transform="translate(1443.07 -561.02) rotate(90)"/><rect class="v" x="1015.4" y="454.41" width="26.74" height="26.72" transform="translate(1496.54 -561) rotate(90)"/><rect class="v" x="961.95" y="454.41" width="26.74" height="26.72" transform="translate(1443.09 -507.55) rotate(90)"/><rect class="v" x="1095.57" y="427.67" width="26.74" height="26.72" transform="translate(1549.97 -667.91) rotate(90)"/><rect class="v" x="1068.84" y="454.41" width="26.74" height="26.72" transform="translate(1549.98 -614.45) rotate(90)"/><rect class="v" x="1042.12" y="427.67" width="26.74" height="26.72" transform="translate(1496.52 -614.46) rotate(90)"/></g></g><g><circle class="u" cx="1041.61" cy="561.01" r="80.16"/><g class="aa"><g><path class="r" d="M1161.62,567.25c-12.36-12.36,3.24-27.95-9.12-40.31-12.36-12.36-27.95,3.24-40.31-9.12-12.36-12.36,3.24-27.96-9.12-40.31-12.36-12.36-27.96,3.24-40.32-9.12-12.36-12.36,3.24-27.96-9.12-40.32"/><path class="r" d="M1136.28,592.59c-12.36-12.36,3.24-27.95-9.12-40.31-12.36-12.36-27.95,3.24-40.31-9.12-12.36-12.36,3.24-27.96-9.12-40.31-12.36-12.36-27.96,3.24-40.32-9.12-12.36-12.36,3.24-27.96-9.12-40.32"/><path class="r" d="M1110.94,617.93c-12.36-12.36,3.24-27.95-9.12-40.31-12.36-12.36-27.95,3.24-40.31-9.12-12.36-12.36,3.24-27.96-9.12-40.31-12.36-12.36-27.96,3.24-40.32-9.12-12.36-12.36,3.24-27.96-9.12-40.32"/><path class="r" d="M1085.6,643.27c-12.36-12.36,3.24-27.95-9.12-40.31-12.36-12.36-27.95,3.24-40.31-9.12-12.36-12.36,3.24-27.96-9.12-40.31-12.36-12.36-27.96,3.24-40.32-9.12s3.24-27.96-9.12-40.32"/><path class="r" d="M1060.26,668.61c-12.36-12.36,3.24-27.95-9.12-40.31-12.36-12.36-27.95,3.24-40.31-9.12-12.36-12.36,3.24-27.96-9.12-40.31-12.36-12.36-27.96,3.24-40.32-9.12-12.36-12.36,3.24-27.96-9.12-40.32"/><path class="r" d="M1034.92,693.95c-12.36-12.36,3.24-27.95-9.12-40.31-12.36-12.36-27.95,3.24-40.31-9.12-12.36-12.36,3.24-27.96-9.12-40.31-12.36-12.36-27.96,3.24-40.32-9.12-12.36-12.36,3.24-27.96-9.12-40.32"/></g></g></g><g><rect class="u" x="1603.68" y="320.77" width="160.37" height="160.37" transform="translate(2084.82 -1282.91) rotate(90)"/><polygon class="t" points="1603.68 320.77 1603.68 360.86 1764.05 320.77 1603.68 320.77"/><polygon class="t" points="1603.68 360.86 1603.68 400.95 1764.05 360.86 1603.68 360.86"/><polygon class="t" points="1603.68 400.95 1603.68 441.04 1764.05 400.95 1603.68 400.95"/><polygon class="t" points="1603.68 441.04 1603.68 481.14 1764.05 441.04 1603.68 441.04"/></g><g><rect class="v" x="1122.51" y="-.18" width="160.51" height="160.51" transform="translate(1282.83 -1122.69) rotate(90)"/><polygon class="u" points="1122.51 -.18 1122.51 39.94 1283.01 -.18 1122.51 -.18"/><polygon class="u" points="1122.51 39.94 1122.51 80.07 1283.01 39.94 1122.51 39.94"/><polygon class="u" points="1122.51 80.07 1122.51 120.2 1283.01 80.07 1122.51 80.07"/><polygon class="u" points="1122.51 120.2 1122.51 160.32 1283.01 120.2 1122.51 120.2"/></g><g><rect class="t" x="1443.36" y="160.25" width="160.44" height="160.44" transform="translate(1764.06 -1283.11) rotate(90)"/><rect class="v" x="1483.47" y="200.36" width="80.22" height="80.22" transform="translate(1764.06 -1283.11) rotate(90)"/></g><g><rect class="s" x="1282.39" y="481.27" width="160.44" height="160.32" transform="translate(1924.04 -801.18) rotate(90)"/><rect class="t" x="1305.76" y="504.76" width="113.71" height="113.71" transform="translate(2723.24 -4.78) rotate(135)"/></g><g><rect class="u" x="1603.53" y="481.14" width="160.45" height="160.45" transform="translate(2245.11 -1122.39) rotate(90)"/><g class="a`"><g><path class="t" d="M1596.3,467.97v-14.61c12.28,0,18.6,7.98,23.22,13.81,4.31,5.43,6.78,8.27,11.77,8.27s7.46-2.84,11.77-8.27c4.62-5.83,10.94-13.81,23.22-13.81,12.28,0,18.6,7.98,23.21,13.81,4.3,5.43,6.78,8.27,11.76,8.27s7.46-2.84,11.76-8.27c4.62-5.83,10.94-13.81,23.21-13.81s18.6,7.98,23.21,13.81c4.3,5.43,6.78,8.27,11.76,8.27v14.61c-12.28,0-18.6-7.98-23.21-13.81-4.3-5.43-6.78-8.27-11.76-8.27s-7.46,2.84-11.76,8.27c-4.62,5.83-10.94,13.81-23.21,13.81-12.28,0-18.6-7.98-23.21-13.81-4.3-5.43-6.78-8.27-11.76-8.27-4.98,0-7.46,2.84-11.77,8.27-4.62,5.83-10.94,13.81-23.22,13.81s-18.6-7.98-23.22-13.81c-4.31-5.43-6.78-8.27-11.77-8.27Z"/><path class="t" d="M1596.3,503.83v-14.61c12.28,0,18.6,7.98,23.22,13.81,4.31,5.43,6.78,8.27,11.77,8.27s7.46-2.84,11.77-8.27c4.62-5.83,10.94-13.81,23.22-13.81,12.28,0,18.6,7.98,23.21,13.81,4.3,5.43,6.78,8.27,11.76,8.27s7.46-2.84,11.76-8.27c4.62-5.83,10.94-13.81,23.21-13.81,12.28,0,18.6,7.98,23.21,13.81,4.3,5.43,6.78,8.27,11.76,8.27v14.61c-12.28,0-18.6-7.98-23.21-13.81-4.31-5.43-6.78-8.27-11.76-8.27s-7.46,2.84-11.76,8.27c-4.62,5.83-10.94,13.81-23.21,13.81-12.28,0-18.6-7.98-23.21-13.81-4.3-5.43-6.78-8.27-11.76-8.27s-7.46,2.84-11.77,8.27c-4.62,5.83-10.94,13.81-23.22,13.81s-18.6-7.98-23.22-13.81c-4.31-5.43-6.78-8.27-11.77-8.27Z"/><path class="t" d="M1596.3,539.7v-14.61c12.28,0,18.6,7.98,23.22,13.81,4.31,5.43,6.78,8.27,11.77,8.27s7.46-2.84,11.77-8.27c4.62-5.83,10.94-13.81,23.22-13.81,12.28,0,18.6,7.98,23.21,13.81,4.3,5.43,6.78,8.27,11.76,8.27s7.46-2.84,11.76-8.27c4.62-5.83,10.94-13.81,23.21-13.81,12.28,0,18.6,7.98,23.21,13.81,4.3,5.43,6.78,8.27,11.76,8.27v14.61c-12.28,0-18.6-7.98-23.21-13.81-4.3-5.43-6.78-8.27-11.76-8.27s-7.46,2.84-11.76,8.27c-4.62,5.83-10.94,13.81-23.21,13.81-12.28,0-18.6-7.98-23.21-13.81-4.3-5.43-6.78-8.27-11.76-8.27-4.98,0-7.46,2.84-11.77,8.27-4.62,5.83-10.94,13.81-23.22,13.81s-18.6-7.98-23.22-13.81c-4.31-5.43-6.78-8.27-11.77-8.27Z"/><path class="t" d="M1596.3,575.56v-14.61c12.28,0,18.6,7.98,23.22,13.81,4.31,5.43,6.78,8.27,11.77,8.27s7.46-2.84,11.77-8.27c4.62-5.83,10.94-13.81,23.22-13.81,12.28,0,18.6,7.98,23.21,13.81,4.3,5.43,6.78,8.27,11.76,8.27s7.46-2.84,11.76-8.27c4.62-5.83,10.94-13.81,23.21-13.81s18.6,7.98,23.21,13.81c4.3,5.43,6.78,8.27,11.76,8.27v14.61c-12.28,0-18.6-7.98-23.21-13.81-4.31-5.43-6.78-8.27-11.76-8.27s-7.46,2.84-11.76,8.27c-4.62,5.83-10.94,13.81-23.21,13.81s-18.6-7.98-23.21-13.81c-4.3-5.43-6.78-8.27-11.76-8.27s-7.46,2.84-11.77,8.27c-4.62,5.83-10.94,13.81-23.22,13.81-12.28,0-18.6-7.98-23.22-13.81-4.31-5.43-6.78-8.27-11.77-8.27Z"/><path class="t" d="M1596.3,611.42v-14.61c12.28,0,18.6,7.98,23.22,13.81,4.31,5.43,6.78,8.27,11.77,8.27s7.46-2.84,11.77-8.27c4.62-5.83,10.94-13.81,23.22-13.81s18.6,7.98,23.21,13.81c4.3,5.43,6.78,8.27,11.76,8.27s7.46-2.84,11.76-8.27c4.62-5.83,10.94-13.81,23.21-13.81,12.28,0,18.6,7.98,23.21,13.81,4.3,5.43,6.78,8.27,11.76,8.27v14.61c-12.28,0-18.6-7.98-23.21-13.81-4.3-5.43-6.78-8.27-11.76-8.27s-7.46,2.84-11.76,8.27c-4.62,5.83-10.94,13.81-23.21,13.81-12.28,0-18.6-7.98-23.21-13.81-4.3-5.43-6.78-8.27-11.76-8.27s-7.46,2.84-11.77,8.27c-4.62,5.83-10.94,13.81-23.22,13.81-12.28,0-18.6-7.98-23.22-13.81-4.31-5.43-6.78-8.27-11.77-8.27Z"/><path class="t" d="M1596.3,647.28v-14.61c12.28,0,18.6,7.98,23.22,13.81,4.31,5.43,6.78,8.27,11.77,8.27s7.46-2.84,11.77-8.27c4.62-5.83,10.94-13.81,23.22-13.81,12.28,0,18.6,7.98,23.21,13.81,4.3,5.43,6.78,8.27,11.76,8.27s7.46-2.84,11.76-8.27c4.62-5.83,10.94-13.81,23.21-13.81,12.28,0,18.6,7.98,23.21,13.81,4.3,5.43,6.78,8.27,11.76,8.27v14.61c-12.28,0-18.6-7.98-23.21-13.81-4.31-5.43-6.78-8.27-11.76-8.27s-7.46,2.84-11.76,8.27c-4.62,5.83-10.94,13.81-23.21,13.81-12.28,0-18.6-7.98-23.21-13.81-4.3-5.43-6.78-8.27-11.76-8.27-4.98,0-7.46,2.84-11.77,8.27-4.62,5.83-10.94,13.81-23.22,13.81-12.28,0-18.6-7.98-23.22-13.81-4.31-5.43-6.78-8.27-11.77-8.27Z"/></g></g></g><g><rect class="u" x="1122.3" y="320.69" width="160.45" height="160.45" transform="translate(1603.44 -801.6) rotate(90)"/><g class="ai"><g><path class="t" d="M1150.05,329.61c-12.27,0-18.59-7.98-23.21-13.81-1.75-2.2-3.18-3.97-4.62-5.3v-16.57c7.78,2.33,12.45,8.23,16.07,12.8,4.3,5.43,6.79,8.27,11.76,8.27s7.47-2.84,11.77-8.27c4.61-5.83,10.94-13.81,23.21-13.81s18.6,7.98,23.21,13.81c4.3,5.43,6.79,8.27,11.76,8.27,4.98,0,7.46-2.84,11.76-8.27,4.61-5.83,10.94-13.81,23.21-13.81,12.28,0,18.6,7.98,23.21,13.81,1.88,2.37,3.4,4.24,4.94,5.6v16.37c-7.97-2.26-12.72-8.26-16.39-12.89-4.3-5.43-6.78-8.27-11.76-8.27s-7.46,2.84-11.76,8.27c-4.61,5.83-10.94,13.81-23.21,13.81s-18.6-7.98-23.21-13.81c-4.3-5.43-6.78-8.27-11.76-8.27-4.98,0-7.46,2.84-11.76,8.27-4.61,5.83-10.94,13.81-23.22,13.81Z"/><path class="t" d="M1150.05,365.47c-12.27,0-18.59-7.98-23.21-13.81-1.75-2.2-3.18-3.97-4.62-5.3v-16.56c7.78,2.33,12.45,8.23,16.07,12.8,4.3,5.43,6.79,8.27,11.76,8.27s7.47-2.84,11.77-8.27c4.61-5.83,10.94-13.81,23.21-13.81,12.28,0,18.6,7.98,23.21,13.81,4.3,5.43,6.79,8.27,11.76,8.27s7.46-2.84,11.76-8.27c4.61-5.83,10.94-13.81,23.21-13.81s18.6,7.98,23.21,13.81c1.88,2.37,3.4,4.24,4.94,5.6v16.36c-7.97-2.26-12.72-8.26-16.39-12.89-4.3-5.43-6.78-8.27-11.76-8.27s-7.46,2.84-11.76,8.27c-4.61,5.83-10.94,13.81-23.21,13.81-12.27,0-18.6-7.98-23.21-13.81-4.3-5.43-6.78-8.27-11.76-8.27s-7.46,2.84-11.76,8.27c-4.61,5.83-10.94,13.81-23.22,13.81Z"/><path class="t" d="M1150.05,401.33c-12.27,0-18.59-7.98-23.21-13.81-1.75-2.2-3.18-3.97-4.62-5.3v-16.56c7.78,2.32,12.45,8.22,16.07,12.79,4.3,5.43,6.79,8.27,11.76,8.27,4.98,0,7.47-2.84,11.77-8.27,4.61-5.83,10.94-13.81,23.21-13.81s18.6,7.98,23.21,13.81c4.3,5.43,6.79,8.27,11.76,8.27,4.98,0,7.46-2.84,11.76-8.27,4.61-5.83,10.94-13.81,23.21-13.81,12.28,0,18.6,7.98,23.21,13.81,1.88,2.37,3.4,4.24,4.94,5.6v16.36c-7.97-2.26-12.72-8.26-16.39-12.89-4.3-5.43-6.78-8.27-11.76-8.27s-7.46,2.84-11.76,8.27c-4.61,5.83-10.94,13.81-23.21,13.81s-18.6-7.98-23.21-13.81c-4.3-5.43-6.78-8.27-11.76-8.27-4.98,0-7.46,2.84-11.76,8.27-4.61,5.83-10.94,13.81-23.22,13.81Z"/><path class="t" d="M1150.05,437.19c-12.27,0-18.59-7.98-23.21-13.81-1.75-2.2-3.18-3.98-4.62-5.31v-16.56c7.78,2.32,12.45,8.22,16.07,12.79,4.3,5.43,6.79,8.27,11.76,8.27s7.47-2.84,11.77-8.27c4.61-5.83,10.94-13.81,23.21-13.81,12.28,0,18.6,7.98,23.21,13.81,4.3,5.43,6.79,8.27,11.76,8.27,4.98,0,7.46-2.84,11.76-8.27,4.61-5.83,10.94-13.81,23.21-13.81s18.6,7.98,23.21,13.81c1.88,2.37,3.4,4.24,4.94,5.6v16.37c-7.97-2.26-12.72-8.26-16.39-12.9-4.3-5.43-6.78-8.27-11.76-8.27s-7.46,2.84-11.76,8.27c-4.61,5.83-10.94,13.81-23.21,13.81s-18.6-7.98-23.21-13.81c-4.3-5.43-6.78-8.27-11.76-8.27-4.98,0-7.46,2.84-11.76,8.27-4.61,5.82-10.94,13.81-23.22,13.81Z"/><path class="t" d="M1150.05,473.06c-12.27,0-18.59-7.98-23.21-13.81-1.75-2.2-3.18-3.97-4.62-5.3v-16.56c7.78,2.32,12.45,8.22,16.07,12.79,4.3,5.43,6.79,8.27,11.76,8.27,4.98,0,7.47-2.84,11.77-8.27,4.61-5.83,10.94-13.81,23.21-13.81,12.28,0,18.6,7.98,23.21,13.81,4.3,5.43,6.79,8.27,11.76,8.27,4.98,0,7.46-2.84,11.76-8.27,4.61-5.83,10.94-13.81,23.21-13.81s18.6,7.98,23.21,13.81c1.88,2.37,3.4,4.24,4.94,5.6v16.37c-7.97-2.26-12.72-8.26-16.39-12.89-4.3-5.43-6.78-8.27-11.76-8.27s-7.46,2.84-11.76,8.27c-4.61,5.83-10.94,13.81-23.21,13.81-12.27,0-18.6-7.98-23.21-13.81-4.3-5.43-6.78-8.27-11.76-8.27s-7.46,2.84-11.76,8.27c-4.61,5.83-10.94,13.81-23.22,13.81Z"/><path class="t" d="M1150.05,508.92c-12.27,0-18.59-7.98-23.21-13.81-1.75-2.2-3.18-3.97-4.62-5.3v-16.56c7.78,2.32,12.45,8.22,16.07,12.79,4.3,5.43,6.79,8.27,11.76,8.27s7.47-2.84,11.77-8.27c4.61-5.83,10.94-13.81,23.21-13.81s18.6,7.98,23.21,13.81c4.3,5.43,6.79,8.26,11.76,8.26,4.98,0,7.46-2.84,11.76-8.27,4.61-5.83,10.94-13.81,23.21-13.81,12.28,0,18.6,7.98,23.21,13.81,1.88,2.37,3.4,4.24,4.94,5.6v16.36c-7.97-2.26-12.72-8.26-16.39-12.89-4.3-5.43-6.78-8.27-11.76-8.27s-7.46,2.84-11.76,8.27c-4.61,5.83-10.94,13.81-23.21,13.81s-18.6-7.98-23.21-13.81c-4.3-5.43-6.78-8.27-11.76-8.27-4.98,0-7.46,2.84-11.76,8.27-4.61,5.83-10.94,13.81-23.22,13.81Z"/></g></g></g><g><rect class="t" x="1282.75" y="320.89" width="160.32" height="160.32"/><polygon class="u" points="1282.99 481.21 1443.31 481.21 1363.15 320.89 1282.99 481.21"/></g><g><rect class="v" x="1763.98" y="481.14" width="80.26" height="80.26" transform="translate(2325.37 -1282.84) rotate(90)"/><polygon class="t" points="1763.98 481.14 1763.98 561.4 1844.23 521.27 1763.98 481.14"/><rect class="v" x="1844.23" y="481.14" width="80.26" height="80.26" transform="translate(2405.63 -1363.1) rotate(90)"/><polygon class="u" points="1844.23 481.14 1844.23 561.4 1924.49 521.27 1844.23 481.14"/><rect class="v" x="1763.98" y="561.4" width="80.26" height="80.26" transform="translate(2405.63 -1202.58) rotate(90)"/><polygon class="u" points="1763.98 561.4 1763.98 641.65 1844.23 601.52 1763.98 561.4"/><rect class="v" x="1844.23" y="561.4" width="80.26" height="80.26" transform="translate(2485.89 -1282.84) rotate(90)"/><polygon class="t" points="1844.23 561.4 1844.23 641.65 1924.49 601.52 1844.23 561.4"/></g><g><rect class="v" x="1202.3" y="160.25" width="80.23" height="80.23" transform="translate(2484.82 400.73) rotate(-180)"/><polygon class="v" points="1282.52 160.25 1202.3 160.25 1242.41 240.48 1282.52 160.25"/><rect class="v" x="1202.3" y="240.48" width="80.23" height="80.23" transform="translate(2484.82 561.19) rotate(-180)"/><polygon class="u" points="1282.52 240.48 1202.3 240.48 1242.41 320.71 1282.52 240.48"/><rect class="v" x="1122.07" y="160.25" width="80.23" height="80.23" transform="translate(2324.37 400.73) rotate(-180)"/><polygon class="t" points="1202.3 160.25 1122.07 160.25 1162.18 240.48 1202.3 160.25"/><rect class="v" x="1122.07" y="240.48" width="80.23" height="80.23" transform="translate(2324.37 561.19) rotate(-180)"/><polygon class="v" points="1202.3 240.48 1122.07 240.48 1162.18 320.71 1202.3 240.48"/></g><g><polygon class="v" points="1924.37 320.69 1924.37 160.25 1844.21 240.53 1924.37 320.69"/><polygon class="u" points="1764.17 320.69 1924.37 320.69 1844.21 240.53 1764.17 320.69"/><polygon class="v" points="1844.21 240.53 1763.93 160.25 1763.93 320.69 1764.17 320.69 1844.21 240.53"/><polygon class="u" points="1924.37 160.25 1763.93 160.25 1844.21 240.53 1924.37 160.25"/></g><g><rect class="v" x="1443.14" y="-.2" width="160.45" height="160.45"/><path class="u" d="M1603.6,160.25h-160.45V.04h.24c88.48,0,160.21,71.73,160.21,160.21Z"/></g><g><rect class="u" x="1443.01" y="481.13" width="160.52" height="160.52"/><path class="t" d="M1443.01,481.13l160.52,.12v160.28h-.24c-88.52,0-160.28-71.88-160.28-160.4Z"/><path class="u" d="M1523.24,481.26h80.26v80.14h-.12c-44.26,0-80.14-35.88-80.14-80.14Z"/></g><g><path class="t" d="M1561.01,363.44c24.69,7.48,42.67,30.42,42.67,57.56v-100.23h-100.21c27.13,0,50.06,17.98,57.54,42.67Z"/><path class="t" d="M1503.43,320.77h-60.12v60.12c0-33.2,26.92-60.11,60.12-60.12Z"/><path class="t" d="M1603.68,421c0,33.21-26.92,60.14-60.14,60.14h60.14v-60.14Z"/><path class="t" d="M1485.98,438.46c-24.69-7.48-42.66-30.41-42.67-57.54v100.21h100.23c-27.14,0-50.07-17.98-57.56-42.67Z"/><path class="v" d="M1603.68,421c0-27.14-17.98-50.07-42.67-57.56,1.68,5.53,2.58,11.39,2.58,17.47,0,33.21-26.92,60.14-60.14,60.14-6.08,0-11.94-.9-17.47-2.58,7.48,24.69,30.42,42.67,57.56,42.67,33.21,0,60.14-26.92,60.14-60.14Z"/><path class="t" d="M1503.45,320.77s-.01,0-.02,0h.02Z"/><path class="t" d="M1443.31,380.9s0,.01,0,.02v-.02Z"/><path class="v" d="M1485.98,438.46c-1.68-5.53-2.58-11.39-2.58-17.47,0-33.21,26.92-60.14,60.14-60.14,6.07,0,11.94,.9,17.47,2.58-7.48-24.69-30.41-42.66-57.54-42.67h-.03c-33.2,0-60.11,26.92-60.12,60.12v.03c0,27.13,17.98,50.06,42.67,57.54Z"/><path class="u" d="M1483.4,421c0,6.08,.9,11.94,2.58,17.47,5.53,1.68,11.39,2.58,17.47,2.58,33.21,0,60.14-26.92,60.14-60.14,0-6.08-.9-11.94-2.58-17.47-5.53-1.68-11.39-2.58-17.47-2.58-33.21,0-60.14,26.92-60.14,60.14Z"/></g><g><rect class="u" x="962.11" y="-.14" width="160.45" height="160.34" transform="translate(1122.37 -962.31) rotate(90)"/><rect class="v" x="1002.23" y="39.94" width="80.23" height="80.17" transform="translate(1122.37 -962.31) rotate(90)"/></g><g><path class="u" d="M1079.41,202.94c24.69,7.49,42.66,30.43,42.66,57.59v-100.28h-100.2c27.13,0,50.05,17.99,57.53,42.69Z"/><path class="u" d="M1021.84,160.25h-60.11v60.15c0-33.22,26.92-60.14,60.11-60.15Z"/><path class="u" d="M1122.07,260.53c0,33.23-26.92,60.17-60.13,60.17h60.13v-60.17Z"/><path class="u" d="M1004.39,278c-24.68-7.49-42.66-30.43-42.66-57.57v100.26h100.21c-27.13,0-50.06-17.99-57.55-42.69Z"/><path class="v" d="M1122.07,260.53c0-27.15-17.97-50.1-42.66-57.59,1.67,5.53,2.58,11.4,2.58,17.47,0,33.23-26.92,60.17-60.13,60.17-6.07,0-11.94-.9-17.46-2.58,7.48,24.71,30.41,42.69,57.55,42.69,33.21,0,60.13-26.94,60.13-60.17Z"/><path class="t" d="M1021.86,160.25s-.01,0-.02,0h.02Z"/><path class="t" d="M961.73,220.42v0Z"/><path class="s" d="M1004.39,278c-1.67-5.53-2.58-11.4-2.58-17.47,0-33.23,26.92-60.17,60.13-60.17,6.07,0,11.94,.9,17.46,2.58-7.48-24.7-30.41-42.68-57.53-42.69h-.03c-33.19,0-60.1,26.93-60.11,60.15v.03c0,27.14,17.98,50.08,42.66,57.57Z"/><path class="u" d="M1001.82,260.53c0,6.08,.9,11.94,2.58,17.47,5.53,1.68,11.39,2.58,17.46,2.58,33.21,0,60.13-26.94,60.13-60.17,0-6.08-.9-11.94-2.58-17.47-5.53-1.68-11.39-2.58-17.46-2.58-33.21,0-60.13,26.94-60.13,60.17Z"/></g><g><rect class="v" x="1283.01" y=".12" width="160.13" height="160.13" transform="translate(1443.26 -1282.89) rotate(90)"/><circle class="t" cx="1402.99" cy="120.1" r="39.91"/><circle class="u" cx="1402.99" cy="40.15" r="39.91"/><circle class="t" cx="1323.05" cy="120.1" r="39.91"/><circle class="u" cx="1323.05" cy="40.15" r="39.91"/></g><g class="ah"><g><rect class="t" x="1182.15" y="154.59" width="227.37" height="37.9" transform="translate(256.83 967.12) rotate(-45)"/><rect class="u" x="1208.95" y="181.39" width="227.37" height="37.89" transform="translate(245.73 993.92) rotate(-45)"/><rect class="t" x="1235.74" y="208.18" width="227.37" height="37.89" transform="translate(234.63 1020.71) rotate(-45)"/><g><rect class="u" x="1316.13" y="288.57" width="227.37" height="37.89" transform="translate(201.33 1101.1) rotate(-45)"/><rect class="t" x="1289.34" y="261.78" width="227.37" height="37.89" transform="translate(212.43 1074.31) rotate(-45)"/><rect class="u" x="1262.54" y="234.98" width="227.37" height="37.9" transform="translate(223.53 1047.51) rotate(-45)"/></g></g></g></g></g></g></g></g></svg>