<?xml version="1.0" encoding="utf-8"?>
<!-- Generator: Adobe Illustrator 24.1.2, SVG Export Plug-In . SVG Version: 6.00 Build 0)  -->
<svg version="1.1" id="Layer_1" xmlns="http://www.w3.org/2000/svg" xmlns:xlink="http://www.w3.org/1999/xlink" x="0px" y="0px"
	 viewBox="0 0 22.29 22.4" style="enable-background:new 0 0 22.29 22.4;" xml:space="preserve">
<style type="text/css">
	.st0{fill-rule:evenodd;clip-rule:evenodd;fill:#FFFFFF;}
</style>
<g id="a">
</g>
<g id="b">
	<g id="c">
		<path class="st0" d="M0.44,7.54h4.42V22.4H0.44V7.54z M2.62,0C4.1,0,5.3,1.2,5.3,2.68S4.1,5.36,2.62,5.36S0,4.15,0,2.68
			S1.15,0,2.62,0L2.62,0z M7.49,7.54h4.37v2.08c0.93-1.37,2.46-2.24,4.21-2.24h1.2c2.79,0,5.03,2.29,5.03,5.03v10h-4.37v-1.37l0,0
			v-6.67l0,0c-0.05-1.69-1.2-3.01-2.9-3.01l0,0c-1.69,0-3.11,1.31-3.17,3.01l0,0v8.03H7.49V7.54z"/>
	</g>
</g>
</svg>
