<?xml version="1.0" encoding="utf-8"?>
<!-- Generator: Adobe Illustrator 24.1.2, SVG Export Plug-In . SVG Version: 6.00 Build 0)  -->
<svg version="1.1" id="Layer_1" xmlns="http://www.w3.org/2000/svg" xmlns:xlink="http://www.w3.org/1999/xlink" x="0px" y="0px"
	 viewBox="0 0 91.77 91.78" style="enable-background:new 0 0 91.77 91.78;" xml:space="preserve">
<style type="text/css">
	.st0{fill:#59C173;}
</style>
<g id="a">
</g>
<g id="b">
	<g id="c">
		<path class="st0" d="M17.09,57.59C7.66,57.59,0,65.26,0,74.68s7.67,17.09,17.09,17.09s17.09-7.67,17.09-17.09
			c0-4.48-1.75-8.55-4.58-11.61l4.76-4.57c3.04,2.78,7.07,4.49,11.51,4.49c4.17,0,7.99-1.5,10.96-3.99l4.64,4.84
			c-2.43,2.95-3.89,6.73-3.89,10.85c0,9.43,7.67,17.09,17.09,17.09s17.09-7.67,17.09-17.09S84.09,57.6,74.67,57.6
			c-4.49,0-8.56,1.75-11.61,4.59l-4.58-4.77c2.78-3.04,4.49-7.07,4.49-11.51c0-4.17-1.5-7.99-3.99-10.96l4.85-4.65
			c2.95,2.43,6.73,3.9,10.85,3.9c9.43,0,17.09-7.67,17.09-17.09S84.1,0,74.68,0S57.59,7.67,57.59,17.09c0,4.48,1.75,8.56,4.58,11.61
			l-4.78,4.59c-3.04-2.78-7.07-4.49-11.51-4.49c-4.17,0-7.99,1.5-10.96,3.99l-4.64-4.84c2.44-2.96,3.91-6.74,3.91-10.87
			C34.19,7.67,26.52,0,17.09,0C7.67,0,0,7.67,0,17.09s7.67,17.09,17.09,17.09c4.48,0,8.54-1.74,11.59-4.57l4.59,4.78
			c-2.78,3.04-4.49,7.07-4.49,11.51c0,4.17,1.5,7.99,3.99,10.96l-4.82,4.63C24.99,59.05,21.21,57.59,17.09,57.59L17.09,57.59z
			 M8.18,86.47c0.13-3.83,2.62-7.12,6.31-8.24c0.44-0.13,0.76-0.52,0.81-0.98c0.05-0.46-0.19-0.9-0.59-1.12
			c-1.74-0.95-2.83-2.77-2.83-4.76c0-2.98,2.43-5.41,5.41-5.41s5.41,2.43,5.41,5.41c0,2.04-1.14,3.89-2.96,4.82
			c-0.41,0.21-0.66,0.65-0.62,1.11c0.03,0.46,0.34,0.86,0.78,1c3.57,1.18,5.97,4.44,6.1,8.17c-2.48,1.88-5.56,3.01-8.91,3.01
			S10.66,88.35,8.18,86.47C8.18,86.47,8.18,86.47,8.18,86.47z M28.07,84.56c-0.64-3.21-2.64-5.99-5.5-7.59
			C24.1,75.54,25,73.53,25,71.36c0-4.25-3.46-7.71-7.7-7.71s-7.71,3.46-7.71,7.71c0,2.08,0.84,4.04,2.28,5.47
			c-3.01,1.57-5.1,4.41-5.75,7.73c-2.36-2.62-3.82-6.08-3.82-9.88c0-8.16,6.64-14.8,14.8-14.8s14.8,6.64,14.8,14.8
			c0,3.8-1.45,7.26-3.82,9.89l0,0L28.07,84.56z M36.96,57.68c0.13-3.83,2.62-7.12,6.31-8.24c0.44-0.13,0.76-0.52,0.81-0.98
			c0.05-0.46-0.19-0.9-0.59-1.12c-1.74-0.95-2.83-2.77-2.83-4.76c0-2.98,2.43-5.41,5.41-5.41s5.41,2.43,5.41,5.41
			c0,2.04-1.14,3.89-2.96,4.82c-0.41,0.21-0.66,0.65-0.62,1.11c0.03,0.46,0.34,0.86,0.78,1c3.57,1.18,5.97,4.44,6.1,8.17
			c-2.48,1.88-5.56,3.01-8.91,3.01S39.44,59.56,36.96,57.68C36.96,57.68,36.96,57.68,36.96,57.68z M65.76,86.46
			c0.13-3.83,2.62-7.12,6.31-8.24c0.44-0.13,0.76-0.52,0.81-0.98c0.05-0.46-0.19-0.9-0.59-1.12c-1.74-0.95-2.83-2.77-2.83-4.76
			c0-2.98,2.43-5.41,5.41-5.41s5.41,2.43,5.41,5.41c0,2.04-1.14,3.89-2.96,4.82c-0.41,0.21-0.66,0.65-0.62,1.11
			c0.03,0.46,0.34,0.86,0.78,1c3.57,1.18,5.97,4.44,6.1,8.17c-2.48,1.88-5.56,3.01-8.91,3.01S68.24,88.34,65.76,86.46L65.76,86.46z
			 M74.67,59.87c8.16,0,14.8,6.64,14.8,14.8c0,3.8-1.45,7.26-3.82,9.89c-0.64-3.21-2.64-5.99-5.5-7.59
			c1.53-1.43,2.43-3.44,2.43-5.61c0-4.25-3.46-7.71-7.7-7.71s-7.7,3.46-7.7,7.71c0,2.08,0.84,4.04,2.28,5.47
			c-3.01,1.57-5.1,4.41-5.75,7.73c-2.36-2.62-3.82-6.08-3.82-9.88c0-8.16,6.64-14.8,14.8-14.8l0,0L74.67,59.87z M65.76,28.87
			c0.13-3.83,2.62-7.12,6.31-8.24c0.44-0.13,0.76-0.52,0.81-0.98c0.05-0.46-0.19-0.9-0.59-1.12c-1.74-0.95-2.83-2.77-2.83-4.76
			c0-2.98,2.43-5.41,5.41-5.41s5.41,2.43,5.41,5.41c0,2.04-1.14,3.89-2.96,4.82c-0.41,0.21-0.66,0.65-0.62,1.11
			c0.03,0.46,0.34,0.86,0.78,1c3.57,1.18,5.97,4.44,6.1,8.17c-2.48,1.88-5.56,3.01-8.91,3.01S68.24,30.75,65.76,28.87L65.76,28.87z
			 M74.68,2.3c8.16,0,14.8,6.64,14.8,14.8c0,3.8-1.45,7.26-3.82,9.89c-0.64-3.21-2.64-5.99-5.5-7.59c1.53-1.43,2.43-3.44,2.43-5.61
			c0-4.25-3.46-7.7-7.7-7.7s-7.7,3.46-7.7,7.7c0,2.08,0.84,4.04,2.28,5.47c-3.01,1.57-5.1,4.41-5.76,7.73
			c-2.36-2.62-3.82-6.08-3.82-9.88c0-8.16,6.64-14.8,14.8-14.8l0,0L74.68,2.3z M2.29,17.09c0-8.16,6.64-14.79,14.8-14.79
			s14.8,6.64,14.8,14.8c0,3.8-1.45,7.26-3.82,9.89c-0.64-3.21-2.64-5.99-5.5-7.59C24.1,17.97,25,15.96,25,13.79
			c0-4.25-3.46-7.7-7.7-7.7s-7.71,3.46-7.71,7.7c0,2.08,0.84,4.04,2.28,5.47c-3.01,1.57-5.1,4.41-5.75,7.73
			c-2.36-2.62-3.82-6.08-3.82-9.88L2.29,17.09z M8.18,28.88c0.13-3.83,2.62-7.12,6.31-8.24c0.44-0.13,0.76-0.52,0.81-0.98
			s-0.19-0.9-0.59-1.12c-1.74-0.95-2.83-2.77-2.83-4.76c0-2.98,2.43-5.41,5.41-5.41s5.41,2.43,5.41,5.41c0,2.04-1.14,3.89-2.96,4.82
			c-0.41,0.21-0.66,0.65-0.62,1.11c0.03,0.46,0.34,0.86,0.78,1c3.57,1.18,5.97,4.44,6.1,8.17c-2.48,1.88-5.56,3.01-8.91,3.01
			S10.66,30.76,8.18,28.88C8.18,28.88,8.18,28.88,8.18,28.88z M45.87,31.1c8.16,0,14.8,6.64,14.8,14.8c0,3.8-1.45,7.26-3.82,9.89
			c-0.64-3.21-2.64-5.99-5.5-7.59c1.53-1.43,2.43-3.44,2.43-5.61c0-4.25-3.46-7.7-7.7-7.7s-7.71,3.46-7.71,7.7
			c0,2.08,0.84,4.04,2.28,5.47c-3.01,1.57-5.1,4.41-5.75,7.73c-2.36-2.62-3.82-6.08-3.82-9.88c0-8.16,6.64-14.8,14.8-14.8l0,0
			L45.87,31.1z"/>
	</g>
</g>
</svg>
