<?xml version="1.0" encoding="utf-8"?>
<!-- Generator: Adobe Illustrator 24.1.2, SVG Export Plug-In . SVG Version: 6.00 Build 0)  -->
<svg version="1.1" id="Layer_1" xmlns="http://www.w3.org/2000/svg" xmlns:xlink="http://www.w3.org/1999/xlink" x="0px" y="0px"
	 viewBox="0 0 122.2 90.6" style="enable-background:new 0 0 122.2 90.6;" xml:space="preserve">
<style type="text/css">
	.st0{fill:#59C173;}
</style>
<g id="a">
</g>
<g id="b">
	<g id="c">
		<g>
			<path class="st0" d="M60.38,10.96c0.63,0,1.15-0.51,1.15-1.15V1.15c0-0.63-0.51-1.15-1.15-1.15s-1.15,0.51-1.15,1.15v8.67
				C59.23,10.45,59.74,10.97,60.38,10.96L60.38,10.96L60.38,10.96z"/>
			<path class="st0" d="M77.72,13.49c0.17,0.09,0.35,0.13,0.52,0.13c0.42,0,0.82-0.23,1.02-0.62l3.96-7.71
				c0.29-0.56,0.07-1.26-0.5-1.54c-0.56-0.29-1.26-0.07-1.54,0.5l-3.96,7.71c-0.29,0.56-0.07,1.26,0.5,1.54l0,0L77.72,13.49z"/>
			<path class="st0" d="M41.5,13c0.2,0.4,0.6,0.62,1.02,0.62c0.18,0,0.36-0.04,0.52-0.13c0.56-0.29,0.79-0.98,0.5-1.54l-3.96-7.71
				c-0.29-0.56-0.98-0.79-1.54-0.5s-0.79,0.98-0.5,1.54l3.96,7.71V13z"/>
			<path class="st0" d="M61.53,90.6v-8.67c0-0.63-0.51-1.15-1.15-1.15s-1.15,0.51-1.15,1.15v8.67"/>
			<path class="st0" d="M38.56,88.14c0.42,0,0.82-0.23,1.02-0.62l3.96-7.71c0.29-0.56,0.07-1.26-0.5-1.54
				c-0.56-0.29-1.25-0.07-1.54,0.5l-3.96,7.71c-0.29,0.56-0.07,1.26,0.5,1.54C38.21,88.11,38.39,88.15,38.56,88.14L38.56,88.14
				L38.56,88.14z"/>
			<path class="st0" d="M79.27,78.75c-0.29-0.56-0.98-0.79-1.54-0.5s-0.79,0.98-0.5,1.54l3.96,7.71c0.2,0.4,0.6,0.62,1.02,0.62
				c0.18,0,0.36-0.04,0.52-0.13c0.56-0.29,0.79-0.98,0.5-1.54L79.27,78.75L79.27,78.75z"/>
			<g>
				<g>
					<path class="st0" d="M61.03,42.37c5.31,0,9.62-4.32,9.62-9.62s-4.32-9.62-9.62-9.62s-9.62,4.32-9.62,9.62
						S55.73,42.37,61.03,42.37z M61.03,25.07c4.24,0,7.68,3.45,7.68,7.68s-3.45,7.68-7.68,7.68s-7.68-3.45-7.68-7.68
						S56.8,25.07,61.03,25.07z"/>
					<path class="st0" d="M61.03,42.87c-5.58,0-10.12-4.54-10.12-10.12s4.54-10.12,10.12-10.12s10.12,4.54,10.12,10.12
						S66.61,42.87,61.03,42.87z M61.03,23.63c-5.03,0-9.12,4.09-9.12,9.12s4.09,9.12,9.12,9.12s9.12-4.09,9.12-9.12
						S66.06,23.63,61.03,23.63z M61.03,40.93c-4.51,0-8.18-3.67-8.18-8.18s3.67-8.18,8.18-8.18s8.18,3.67,8.18,8.18
						S65.54,40.93,61.03,40.93z M61.03,25.57c-3.96,0-7.18,3.22-7.18,7.18s3.22,7.18,7.18,7.18s7.18-3.22,7.18-7.18
						S64.99,25.57,61.03,25.57z"/>
				</g>
				<g>
					<path class="st0" d="M61.13,46.58h-0.06c-10.26,0-18.61,8.35-18.61,18.61c0,0.54,0.43,0.97,0.97,0.97h35.34
						c0.54,0,0.97-0.43,0.97-0.97C79.74,54.93,71.39,46.58,61.13,46.58C61.13,46.58,61.13,46.58,61.13,46.58z M44.42,64.22
						c0.5-8.74,7.78-15.7,16.64-15.7h0.06c8.87,0,16.14,6.96,16.64,15.7H44.42L44.42,64.22z"/>
					<path class="st0" d="M78.77,66.66H43.43c-0.81,0-1.47-0.66-1.47-1.47c0-10.54,8.57-19.11,19.11-19.11h0.06
						c10.54,0,19.11,8.57,19.11,19.11C80.24,66,79.58,66.66,78.77,66.66z M61.07,47.08c-9.99,0-18.11,8.12-18.11,18.11
						c0,0.26,0.21,0.47,0.47,0.47h35.34c0.26,0,0.47-0.21,0.47-0.47c0-9.99-8.12-18.11-18.11-18.11H61.07z M78.3,64.72H43.9
						l0.03-0.53c0.52-9.07,8.05-16.17,17.14-16.17s16.68,7.1,17.2,16.17C78.27,64.19,78.3,64.72,78.3,64.72z M44.96,63.72h32.27
						c-0.75-8.29-7.72-14.7-16.11-14.7S45.7,55.44,44.96,63.72L44.96,63.72z"/>
				</g>
			</g>
			<g>
				<g>
					<path class="st0" d="M102.99,42.37c5.31,0,9.62-4.32,9.62-9.62s-4.32-9.62-9.62-9.62s-9.62,4.32-9.62,9.62
						S97.69,42.37,102.99,42.37z M102.99,25.07c4.24,0,7.68,3.45,7.68,7.68s-3.45,7.68-7.68,7.68s-7.68-3.45-7.68-7.68
						S98.76,25.07,102.99,25.07z"/>
					<path class="st0" d="M102.99,42.87c-5.58,0-10.12-4.54-10.12-10.12s4.54-10.12,10.12-10.12s10.12,4.54,10.12,10.12
						S108.57,42.87,102.99,42.87z M102.99,23.63c-5.03,0-9.12,4.09-9.12,9.12s4.09,9.12,9.12,9.12s9.12-4.09,9.12-9.12
						S108.02,23.63,102.99,23.63z M102.99,40.93c-4.51,0-8.18-3.67-8.18-8.18s3.67-8.18,8.18-8.18s8.18,3.67,8.18,8.18
						S107.5,40.93,102.99,40.93z M102.99,25.57c-3.96,0-7.18,3.22-7.18,7.18s3.22,7.18,7.18,7.18s7.18-3.22,7.18-7.18
						S106.95,25.57,102.99,25.57z"/>
				</g>
				<g>
					<path class="st0" d="M103.09,46.58h-0.06c-10.26,0-18.61,8.35-18.61,18.61c0,0.54,0.43,0.97,0.97,0.97h35.34
						c0.54,0,0.97-0.43,0.97-0.97C121.7,54.93,113.35,46.58,103.09,46.58L103.09,46.58z M86.38,64.22c0.5-8.74,7.78-15.7,16.64-15.7
						h0.06c8.87,0,16.14,6.96,16.64,15.7H86.37H86.38z"/>
					<path class="st0" d="M120.73,66.66H85.39c-0.81,0-1.47-0.66-1.47-1.47c0-10.54,8.57-19.11,19.11-19.11h0.06
						c10.54,0,19.11,8.57,19.11,19.11C122.2,66,121.54,66.66,120.73,66.66z M103.03,47.08c-9.99,0-18.11,8.12-18.11,18.11
						c0,0.26,0.21,0.47,0.47,0.47h35.34c0.26,0,0.47-0.21,0.47-0.47c0-9.99-8.13-18.11-18.11-18.11H103.03z M120.26,64.72H85.85
						l0.03-0.53c0.52-9.07,8.05-16.17,17.14-16.17s16.68,7.1,17.2,16.17l0.03,0.53H120.26z M86.92,63.72h32.27
						c-0.75-8.29-7.72-14.7-16.11-14.7S87.66,55.44,86.92,63.72L86.92,63.72z"/>
				</g>
			</g>
			<g>
				<g>
					<path class="st0" d="M19.08,42.37c5.31,0,9.62-4.32,9.62-9.62s-4.32-9.62-9.62-9.62s-9.62,4.32-9.62,9.62
						S13.78,42.37,19.08,42.37C19.08,42.37,19.08,42.37,19.08,42.37z M19.08,25.07c4.24,0,7.68,3.45,7.68,7.68s-3.45,7.68-7.68,7.68
						s-7.68-3.45-7.68-7.68C11.4,28.51,14.85,25.07,19.08,25.07L19.08,25.07z"/>
					<path class="st0" d="M19.08,42.87c-5.58,0-10.12-4.54-10.12-10.12s4.54-10.12,10.12-10.12S29.2,27.17,29.2,32.75
						S24.66,42.87,19.08,42.87z M19.08,23.63c-5.03,0-9.12,4.09-9.12,9.12s4.09,9.12,9.12,9.12s9.12-4.09,9.12-9.12
						S24.11,23.63,19.08,23.63z M19.08,40.93c-4.51,0-8.18-3.67-8.18-8.18c0-2.18,0.85-4.24,2.4-5.78c1.55-1.55,3.6-2.4,5.78-2.4
						c4.51,0,8.18,3.67,8.18,8.18S23.59,40.93,19.08,40.93z M19.08,25.57c-1.92,0-3.72,0.75-5.08,2.11s-2.11,3.16-2.11,5.08
						c0,3.96,3.22,7.18,7.18,7.18s7.18-3.22,7.18-7.18s-3.22-7.18-7.18-7.18L19.08,25.57z"/>
				</g>
				<g>
					<path class="st0" d="M1.47,66.16h35.34c0.54,0,0.97-0.43,0.97-0.97c0-10.26-8.35-18.61-18.61-18.61h-0.06
						C8.85,46.58,0.5,54.93,0.5,65.19C0.5,65.73,0.93,66.16,1.47,66.16L1.47,66.16z M19.11,48.52h0.06c8.87,0,16.14,6.96,16.64,15.7
						H2.47C2.97,55.48,10.25,48.52,19.11,48.52C19.11,48.52,19.11,48.52,19.11,48.52z"/>
					<path class="st0" d="M36.81,66.66H1.47C0.66,66.66,0,66,0,65.19c0-10.54,8.57-19.11,19.11-19.11s19.17,8.57,19.17,19.11
						C38.28,66,37.62,66.66,36.81,66.66z M19.17,47.08C9.12,47.08,1,55.2,1,65.19c0,0.26,0.21,0.47,0.47,0.47h35.34
						c0.26,0,0.47-0.21,0.47-0.47C37.28,55.2,29.16,47.08,19.17,47.08z M36.34,64.72H1.94l0.03-0.53
						c0.52-9.07,8.05-16.17,17.14-16.17h0.06c9.09,0,16.62,7.1,17.14,16.17C36.31,64.19,36.34,64.72,36.34,64.72z M3,63.72h32.28
						c-0.75-8.28-7.72-14.7-16.11-14.7h-0.06C10.73,49.02,3.75,55.44,3,63.72L3,63.72z"/>
				</g>
			</g>
		</g>
	</g>
</g>
</svg>
