<?xml version="1.0" encoding="utf-8"?>
<!-- Generator: Adobe Illustrator 24.1.2, SVG Export Plug-In . SVG Version: 6.00 Build 0)  -->
<svg version="1.1" id="Layer_1" xmlns="http://www.w3.org/2000/svg" xmlns:xlink="http://www.w3.org/1999/xlink" x="0px" y="0px"
	 viewBox="0 0 25.1 25.04" style="enable-background:new 0 0 25.1 25.04;" xml:space="preserve">
<style type="text/css">
	.st0{fill-rule:evenodd;clip-rule:evenodd;fill:#FFFFFF;}
</style>
<g id="a">
</g>
<g id="b">
	<g id="c">
		<path class="st0" d="M6.77,0h11.56c3.71,0,6.77,3.06,6.77,6.77v11.5c0,3.71-3.06,6.77-6.77,6.77H6.77C3.06,25.04,0,21.99,0,18.27
			V6.77C0,3.06,3.06,0,6.77,0L6.77,0z M19.29,4.37L19.29,4.37c0.78,0,1.44,0.66,1.44,1.44l0,0c0,0.78-0.66,1.44-1.44,1.44l0,0
			c-0.84,0-1.44-0.66-1.44-1.44l0,0C17.85,5.03,18.45,4.37,19.29,4.37L19.29,4.37z M12.52,5.69h0.06c3.71,0,6.83,3.11,6.83,6.83l0,0
			c0,3.77-3.11,6.83-6.83,6.83h-0.06c-3.71,0-6.77-3.05-6.77-6.83l0,0C5.75,8.81,8.81,5.69,12.52,5.69
			C12.52,5.69,12.52,5.69,12.52,5.69z M12.52,8.03h0.06c2.46,0,4.49,2.04,4.49,4.49l0,0c0,2.52-2.04,4.55-4.49,4.55h-0.06
			c-2.46,0-4.49-2.04-4.49-4.55l0,0C8.03,10.06,10.07,8.03,12.52,8.03C12.52,8.03,12.52,8.03,12.52,8.03z M6.83,2.16h11.44
			c2.58,0,4.67,2.1,4.67,4.67v11.38c0,2.58-2.1,4.67-4.67,4.67H6.83c-2.58,0-4.67-2.1-4.67-4.67V6.83C2.16,4.25,4.26,2.16,6.83,2.16
			C6.83,2.16,6.83,2.16,6.83,2.16z"/>
	</g>
</g>
</svg>
