<?xml version="1.0" encoding="UTF-8"?><svg id="b" xmlns="http://www.w3.org/2000/svg" viewBox="0 0 483.84 90.77"><defs><style>.d{letter-spacing:-.03em;}.d,.e,.f,.g,.h,.i,.j,.k,.l,.m,.n,.o,.p,.q{font-family:Helvetica, Helvetica;}.e{letter-spacing:-.03em;}.r{letter-spacing:-.08em;}.r,.s,.t,.u,.v,.w,.x,.y,.z,.aa,.ab,.ac{font-family:Helvetica-Bold, Helvetica;}.s{letter-spacing:0em;}.ad{letter-spacing:0em;}.ae{letter-spacing:0em;}.t{letter-spacing:0em;}.af,.ag,.z{fill:#fff;}.f,.ah{letter-spacing:0em;}.g{letter-spacing:-.02em;}.h{letter-spacing:-.02em;}.u{letter-spacing:.01em;}.v{letter-spacing:0em;}.ai{letter-spacing:.01em;}.ag,.z{font-size:16.5px;}.aj{letter-spacing:-.03em;}.i{letter-spacing:0em;}.j{letter-spacing:0em;}.w{letter-spacing:0em;}.k{letter-spacing:0em;}.m{letter-spacing:0em;}.y{letter-spacing:0em;}.n{letter-spacing:0em;}.ak{letter-spacing:.01em;}.o{letter-spacing:-.02em;}.al{letter-spacing:0em;}.aa{letter-spacing:0em;}.am{fill:none;stroke:#fff;stroke-miterlimit:10;stroke-width:1.89px;}.an{letter-spacing:-.02em;}.ab{letter-spacing:0em;}.ac{letter-spacing:0em;}.p{letter-spacing:0em;}.q{letter-spacing:0em;}</style></defs><g id="c"><g><text class="z" transform="translate(.94 59.36)"><tspan class="ad" x="0" y="0">3</tspan><tspan class="aj" x="9.29" y="0">,</tspan><tspan class="ae" x="13.46" y="0">7</tspan><tspan class="ai" x="22.65" y="0">8</tspan><tspan x="32" y="0">5 </tspan><tspan class="al" x="45.76" y="0">L</tspan><tspan class="ah" x="55.7" y="0">i</tspan><tspan class="an" x="60.15" y="0">k</tspan><tspan class="ak" x="69.04" y="0">e</tspan><tspan x="78.42" y="0">s</tspan></text><text class="ag" transform="translate(2.26 82.83)"><tspan class="r" x="0" y="0">Y</tspan><tspan class="aa" x="9.76" y="0">o</tspan><tspan class="ac" x="19.75" y="0">u</tspan><tspan class="x" x="29.69" y="0">r </tspan><tspan class="t" x="40.7" y="0">B</tspan><tspan class="y" x="52.53" y="0">r</tspan><tspan class="v" x="58.94" y="0">a</tspan><tspan class="w" x="68.09" y="0">n</tspan><tspan class="x" x="78.14" y="0">d </tspan><tspan class="s" x="92.81" y="0">H</tspan><tspan class="u" x="104.86" y="0">e</tspan><tspan class="ab" x="114.23" y="0">r</tspan><tspan class="x" x="120.69" y="0">e </tspan><tspan class="m" x="134.45" y="0">L</tspan><tspan class="g" x="143.48" y="0">e</tspan><tspan class="j" x="152.4" y="0">t</tspan><tspan class="e" x="157.09" y="0">’</tspan><tspan class="l" x="160.24" y="0">s </tspan><tspan class="p" x="173.08" y="0">g</tspan><tspan class="h" x="182.16" y="0">e</tspan><tspan class="k" x="191.08" y="0">t </tspan><tspan class="n" x="200.25" y="0">m</tspan><tspan class="o" x="213.99" y="0">o</tspan><tspan class="q" x="222.84" y="0">v</tspan><tspan class="f" x="231.04" y="0">i</tspan><tspan class="i" x="234.57" y="0">n</tspan><tspan class="d" x="243.73" y="0">g</tspan><tspan class="l" x="252.4" y="0">!</tspan></text><path class="af" d="M26.61,10.44c0-4.33-3.51-7.83-7.83-7.83-2.14,0-4.06,.85-5.48,2.24-1.41-1.38-3.34-2.24-5.48-2.24C3.51,2.61,0,6.11,0,10.44c0,2.11,.84,4.03,2.2,5.43l11.12,12.23,11.12-12.23h0c1.36-1.41,2.2-3.32,2.2-5.43Zm-13.31,5.59s0,0,0,0h0s0,0,0,0Z"/><path d="M13.31,16.03h0s0,0,0,0c0,0,0,0,0,0Z"/><path d="M13.31,16.03h0s0,0,0,0c0,0,0,0,0,0Z"/><path class="am" d="M70.37,20.33l1.07,4.95-5.06-1.1c-1.65,.95-3.56,1.49-5.59,1.49-6.22,0-11.25-5.04-11.25-11.26s5.04-11.25,11.25-11.25,11.25,5.04,11.25,11.25c0,2.17-.61,4.2-1.68,5.91Z"/><polygon class="am" points="107.41 25.37 104.56 12.81 95.34 3.81 120.21 4.05 107.41 25.37"/><line class="am" x1="104.56" y1="12.81" x2="120.21" y2="4.05"/><polygon class="am" points="482.89 .94 482.89 24.82 472.37 14.29 461.84 24.82 461.84 .94 482.89 .94"/></g></g></svg>