<?xml version="1.0" encoding="utf-8"?>
<!-- Generator: Adobe Illustrator 24.1.2, SVG Export Plug-In . SVG Version: 6.00 Build 0)  -->
<svg version="1.1" id="Layer_1" xmlns="http://www.w3.org/2000/svg" xmlns:xlink="http://www.w3.org/1999/xlink" x="0px" y="0px"
	 viewBox="0 0 1921.3 58.96" style="enable-background:new 0 0 1921.3 58.96;" xml:space="preserve">
<style type="text/css">
	.st0{fill:#FFFFFF;}
	.st1{fill:#59C173;}
</style>
<path class="st0" d="M1921.3,57.96v-45.3c-7.3-5.6-13.2-11.8-27.9-11.8c-25.2,0-25.2,20.2-50.4,20.2s-25.1-20.2-50.3-20.2
	s-25.2,20.2-50.4,20.2s-25.2-20.2-50.4-20.2s-25.2,20.2-50.4,20.2s-25.1-20.2-50.3-20.2s-25.2,20.2-50.4,20.2s-25.2-20.2-50.4-20.2
	s-25.2,20.2-50.4,20.2s-25.1-20.2-50.3-20.2s-25.2,20.2-50.4,20.2s-25.1-20.2-50.3-20.2s-25.2,20.2-50.4,20.2s-25.2-20.2-50.4-20.2
	s-25.2,20.2-50.4,20.2s-25.1-20.2-50.3-20.2s-25.2,20.2-50.4,20.2c-25.1,0-25.1-20.2-50.3-20.2s-25.2,20.2-50.4,20.2
	S911.2,0.86,886,0.86s-25.2,20.2-50.4,20.2s-25.1-20.2-50.3-20.2s-25.2,20.2-50.4,20.2s-25.1-20.2-50.3-20.2s-25.2,20.2-50.4,20.2
	S609,0.86,583.8,0.86s-25.2,20.2-50.4,20.2s-25.1-20.2-50.3-20.2s-25.2,20.2-50.4,20.2s-25.2-20.2-50.3-20.2s-25.2,20.2-50.4,20.2
	s-25.2-20.2-50.4-20.2s-25.2,20.2-50.4,20.2s-25.1-20.2-50.3-20.2s-25.2,20.2-50.4,20.2s-25.2-20.2-50.3-20.2S55,21.06,29.8,21.06
	c-15.3,0-21.6-8.1-29.8-14.1v51H1921.3z"/>
<path class="st1" d="M1921.3,58.96v-45.3c-7.3-5.6-13.2-11.8-27.9-11.8c-25.2,0-25.2,20.2-50.4,20.2s-25.1-20.2-50.3-20.2
	s-25.2,20.2-50.4,20.2s-25.2-20.2-50.4-20.2s-25.2,20.2-50.4,20.2s-25.1-20.2-50.3-20.2s-25.2,20.2-50.4,20.2s-25.2-20.2-50.4-20.2
	s-25.2,20.2-50.4,20.2s-25.1-20.2-50.3-20.2s-25.2,20.2-50.4,20.2s-25.1-20.2-50.3-20.2s-25.2,20.2-50.4,20.2s-25.2-20.2-50.4-20.2
	s-25.2,20.2-50.4,20.2s-25.1-20.2-50.3-20.2s-25.2,20.2-50.4,20.2c-25.1,0-25.1-20.2-50.3-20.2s-25.2,20.2-50.4,20.2
	S911.2,1.86,886,1.86s-25.2,20.2-50.4,20.2s-25.1-20.2-50.3-20.2s-25.2,20.2-50.4,20.2s-25.1-20.2-50.3-20.2s-25.2,20.2-50.4,20.2
	S609,1.86,583.8,1.86s-25.2,20.2-50.4,20.2s-25.1-20.2-50.3-20.2s-25.2,20.2-50.4,20.2s-25.2-20.2-50.3-20.2s-25.2,20.2-50.4,20.2
	s-25.2-20.2-50.4-20.2s-25.2,20.2-50.4,20.2s-25.1-20.2-50.3-20.2s-25.2,20.2-50.4,20.2s-25.2-20.2-50.3-20.2S55,22.06,29.8,22.06
	c-15.3,0-21.6-8.1-29.8-14.1v51H1921.3z"/>
</svg>
